<svg width="870" height="286" viewBox="0 0 870 286" fill="none" xmlns="http://www.w3.org/2000/svg">
<path d="M175.477 166.802H113.633V126.138H234.609V281H190.556L182.254 260.329C179.882 264.734 176.55 268.518 172.257 271.681C167.965 274.844 162.995 277.498 157.347 279.645C151.812 281.678 145.769 283.203 139.218 284.219C132.779 285.236 126.115 285.744 119.225 285.744C101.039 285.744 84.6602 282.864 70.0889 277.103C55.5176 271.342 43.0924 262.701 32.8135 251.18C22.6475 239.545 14.797 225.03 9.26221 207.635C3.72738 190.127 0.959961 169.739 0.959961 146.47C0.959961 124.104 3.95329 103.942 9.93994 85.9819C15.9266 67.909 24.6807 52.547 36.2021 39.896C47.8366 27.132 62.1255 17.3613 79.0688 10.584C96.0122 3.69368 115.441 0.248535 137.354 0.248535C149.327 0.248535 159.889 1.03923 169.038 2.62061C178.3 4.20199 186.32 6.17871 193.098 8.55078C199.875 10.8099 205.466 13.182 209.872 15.667C214.39 18.152 217.948 20.2982 220.546 22.1055L201.23 67.0054C196.147 64.7463 190.951 62.5436 185.643 60.3975C180.447 58.1383 175.194 56.1616 169.885 54.4673C164.689 52.7729 159.493 51.4175 154.297 50.4009C149.214 49.2713 144.131 48.7065 139.048 48.7065C127.866 48.7065 117.869 50.8527 109.059 55.145C100.361 59.4373 92.9624 65.7629 86.8628 74.1216C80.8761 82.3674 76.3014 92.5898 73.1387 104.789C69.9759 116.988 68.3945 131.051 68.3945 146.978C68.3945 159.29 69.4676 170.925 71.6138 181.881C73.8729 192.838 77.318 202.439 81.9492 210.685C86.5804 218.818 92.4541 225.313 99.5703 230.17C106.687 234.914 115.102 237.286 124.816 237.286C134.53 237.286 143.454 236.552 151.586 235.083C159.832 233.615 167.796 231.751 175.477 229.492V166.802ZM342.877 97.334V281H287.303V4.82324H365.242L432.338 206.28L502.314 4.82324H580.423V281H524.849V97.334L465.547 281H402.856L342.877 97.334ZM701.568 281H633.964V4.82324H701.568V123.427H713.428L788.996 4.82324H859.819L766.8 142.403L869.138 281H793.231L712.073 164.938H701.568V281Z" fill="#11162E"/>
</svg>
