<svg width="807" height="207" viewBox="0 0 807 207" fill="none" xmlns="http://www.w3.org/2000/svg">
<path d="M25.824 67.96C11.712 67.96 2.112 53.656 2.112 34.648C2.112 15.64 11.712 1.23999 25.824 1.23999C40.032 1.23999 49.536 15.64 49.536 34.648C49.536 53.656 40.032 67.96 25.824 67.96ZM25.824 65.272C36.864 65.272 41.664 51.256 41.664 34.648C41.664 18.04 36.864 3.832 25.824 3.832C14.88 3.832 9.984 18.04 9.984 34.648C9.984 51.256 14.88 65.272 25.824 65.272ZM54.8468 27.064C53.8867 23.992 53.0228 22.84 50.4307 22.744V21.88H66.3668V22.744H65.6948C62.9108 22.744 61.9508 23.896 61.9508 25.624C61.9508 26.488 62.2388 27.64 63.0068 29.752L71.0708 54.424L78.8468 29.656C79.3268 28.024 79.7108 26.584 79.7108 25.624C79.7108 23.896 78.6548 22.744 76.3508 22.744H75.6788V21.88H87.5828V22.744C84.7028 22.744 83.0708 24.28 81.3428 29.656L69.1508 67.96H68.4788L54.8468 27.064ZM101.367 67.96C91.767 67.96 86.199 57.976 86.199 45.496C86.199 30.904 93.207 20.92 102.519 20.92C110.679 20.92 115.575 27.928 115.767 39.544H92.343V41.656C92.343 54.52 97.431 61.24 104.247 61.24C108.951 61.24 113.079 58.072 115.191 50.104L115.863 50.2C114.423 59.224 109.623 67.96 101.367 67.96ZM92.535 37.24H108.855C108.567 28.792 106.359 23.032 101.559 23.032C96.567 23.032 93.399 28.792 92.535 37.24ZM117.956 66.136C121.892 66.136 123.14 64.792 123.14 60.664V30.04C123.14 25.816 121.892 24.856 118.34 26.104L118.052 25.336L129.38 20.92H129.956V31.864C132.74 25.624 136.196 20.92 140.516 20.92C143.3 20.92 145.124 22.648 145.124 25.24C145.124 27.64 143.492 29.464 141.188 29.464C139.844 29.464 138.788 28.984 137.828 28.12C136.868 27.256 136.388 26.872 135.428 26.872C133.796 26.872 132.164 29.56 129.956 33.688V60.664C129.956 64.792 131.204 66.136 135.236 66.136H136.196V67H117.956V66.136ZM156.94 67.672C152.428 67.672 150.028 64.504 150.028 57.592V24.28H145.42V23.128C150.316 22.36 154.732 16.216 155.788 9.784H156.748V21.88H165.484V24.28H156.748L156.844 57.016C156.844 61.336 157.804 63.256 160.012 63.256C161.932 63.256 163.66 61.72 165.772 57.784L166.444 58.168C163.852 64.792 160.876 67.672 156.94 67.672ZM180.521 67.864C174.281 67.864 171.497 62.968 171.497 52.312V30.04C171.497 25.816 170.249 24.856 166.697 26.104L166.409 25.336L177.737 20.92H178.312V52.312C178.312 59.704 179.753 62.872 184.169 62.872C187.721 62.872 190.121 60.76 192.617 58.36V30.04C192.617 25.816 191.369 24.856 187.817 26.104L187.529 25.336L198.857 20.92H199.433V59.512C199.433 63.736 200.777 64.696 204.329 63.544L204.521 64.312L193.193 67.864H192.617V59.8C189.737 63.832 185.897 67.864 180.521 67.864ZM205.706 66.136C209.642 66.136 210.89 64.792 210.89 60.664V30.04C210.89 25.816 209.546 24.856 205.994 26.104L205.802 25.336L217.13 20.92H217.706V60.664C217.706 64.792 218.954 66.136 222.794 66.136V67H205.706V66.136ZM213.77 12.664C211.082 12.664 209.066 10.552 209.066 7.86399C209.066 5.17599 211.082 3.16 213.77 3.16C216.458 3.16 218.474 5.17599 218.474 7.86399C218.474 10.552 216.458 12.664 213.77 12.664ZM236.364 86.2C228.684 86.2 222.444 82.36 222.444 76.504C222.444 71.8 226.38 68.152 231.948 64.504C228.012 63.64 226.092 61.528 226.092 58.744C226.092 55.864 228.012 53.176 233.58 49.816C228.684 47.704 225.516 42.904 225.516 36.376C225.516 27.16 231.756 21.016 239.532 21.016C241.26 21.016 242.892 21.304 244.524 21.88H257.772V24.28H248.652C251.628 26.776 253.548 30.616 253.548 35.608C253.548 45.496 246.732 50.968 239.532 50.968C237.804 50.968 236.268 50.68 234.828 50.296C232.14 52.216 231.084 53.752 231.084 55.288C231.084 57.112 232.428 58.264 235.788 58.552L245.292 59.32C254.028 59.992 257.388 63.256 257.388 68.92C257.388 77.752 249.324 86.2 236.364 86.2ZM240.012 48.952C244.428 48.952 247.02 44.344 247.02 36.952C247.02 28.792 244.332 23.032 239.244 23.032C234.828 23.032 232.236 27.64 232.236 35.032C232.236 43.096 234.924 48.952 240.012 48.952ZM228.012 74.104C228.012 79.48 232.908 83.032 239.436 83.032C249.036 83.032 253.644 77.176 253.644 72.28C253.644 68.152 250.476 66.328 244.044 65.752L234.54 64.888C234.156 64.888 233.676 64.792 233.292 64.792C229.164 68.344 228.012 71.512 228.012 74.104ZM282.802 59.608C279.538 64.408 275.89 67.96 270.898 67.96C263.314 67.96 258.418 59.416 258.418 47.224C258.418 30.424 266.29 20.92 275.698 20.92C278.194 20.92 280.69 21.784 282.802 23.128V9.4C282.802 5.17599 281.458 4.216 277.906 5.464L277.714 4.696L288.946 0.279995H289.618V59.512C289.618 63.736 290.962 64.696 294.514 63.544L294.706 64.312L283.282 67.864H282.802V59.608ZM265.33 42.712C265.33 57.4 268.978 62.776 274.45 62.776C277.714 62.776 280.018 60.856 282.802 58.264V27.832C280.498 24.28 277.81 23.032 275.41 23.032C269.65 23.032 265.33 29.848 265.33 42.712ZM311.816 27.064C310.855 23.992 309.992 22.84 307.399 22.744V21.88H323.336V22.744H322.664C319.88 22.744 318.92 23.896 318.92 25.624C318.92 26.488 319.208 27.64 319.976 29.752L328.04 54.424L335.816 29.656C336.296 28.024 336.68 26.584 336.68 25.624C336.68 23.896 335.624 22.744 333.32 22.744H332.648V21.88H344.552V22.744C341.672 22.744 340.04 24.28 338.312 29.656L326.12 67.96H325.448L311.816 27.064ZM368.03 67.672C365.63 67.672 363.518 65.848 363.518 60.664V59.992C360.926 63.736 356.798 67.864 351.806 67.864C346.91 67.864 342.974 63.832 342.974 57.208C342.974 49.816 347.582 45.208 354.398 41.848C357.182 40.504 360.062 39.064 363.518 37.624V34.072C363.518 25.912 361.502 22.84 357.374 22.84C354.974 22.84 353.342 23.8 352.382 25.528C351.422 27.736 351.518 30.328 351.326 32.44C351.23 35.224 349.79 36.568 347.87 36.568C345.854 36.568 344.414 35.128 344.414 32.536C344.414 26.776 350.462 20.92 358.718 20.92C366.014 20.92 370.238 25.048 370.238 34.84V58.36C370.238 61.336 370.526 62.68 371.87 62.68C372.926 62.68 373.982 61.912 375.71 59.704L376.286 60.184C373.31 65.08 370.718 67.672 368.03 67.672ZM349.79 54.52C349.79 60.76 352.67 63.064 355.742 63.064C358.238 63.064 360.734 61.528 363.518 58.744V39.832C360.542 41.08 358.238 42.328 356.702 43.192C352.19 45.88 349.79 49.048 349.79 54.52ZM375.862 66.136C379.798 66.136 381.046 64.792 381.046 60.664V30.04C381.046 25.816 379.798 24.856 376.246 26.104L375.958 25.336L387.286 20.92H387.862V29.176C390.742 25.048 394.582 20.92 400.054 20.92C406.198 20.92 409.078 25.816 409.078 36.472V60.664C409.078 64.792 410.326 66.136 414.166 66.136V67H397.27V66.136C401.014 66.136 402.262 64.792 402.262 60.664V36.472C402.262 29.08 400.726 25.912 396.406 25.912C392.758 25.912 390.358 28.12 387.862 30.52V60.664C387.862 64.792 389.11 66.136 392.854 66.136V67H375.862V66.136ZM455.114 59.608C451.85 64.408 448.202 67.96 443.21 67.96C435.626 67.96 430.73 59.416 430.73 47.224C430.73 30.424 438.602 20.92 448.01 20.92C450.506 20.92 453.002 21.784 455.114 23.128V9.4C455.114 5.17599 453.77 4.216 450.218 5.464L450.026 4.696L461.258 0.279995H461.93V59.512C461.93 63.736 463.274 64.696 466.826 63.544L467.018 64.312L455.594 67.864H455.114V59.608ZM437.642 42.712C437.642 57.4 441.29 62.776 446.762 62.776C450.026 62.776 452.33 60.856 455.114 58.264V27.832C452.81 24.28 450.122 23.032 447.722 23.032C441.962 23.032 437.642 29.848 437.642 42.712ZM484.148 67.96C474.548 67.96 468.98 57.976 468.98 45.496C468.98 30.904 475.988 20.92 485.3 20.92C493.46 20.92 498.356 27.928 498.548 39.544H475.124V41.656C475.124 54.52 480.212 61.24 487.028 61.24C491.732 61.24 495.86 58.072 497.972 50.104L498.644 50.2C497.204 59.224 492.404 67.96 484.148 67.96ZM475.316 37.24H491.636C491.348 28.792 489.14 23.032 484.34 23.032C479.348 23.032 476.18 28.792 475.316 37.24ZM515.268 66.136C519.204 66.136 520.452 64.792 520.452 60.664V30.04C520.452 25.816 519.204 24.856 515.652 26.104L515.364 25.336L526.692 20.92H527.268V29.176C530.148 25.048 533.988 20.92 539.46 20.92C545.604 20.92 548.484 25.816 548.484 36.472V60.664C548.484 64.792 549.732 66.136 553.572 66.136V67H536.676V66.136C540.42 66.136 541.668 64.792 541.668 60.664V36.472C541.668 29.08 540.132 25.912 535.812 25.912C532.164 25.912 529.764 28.12 527.268 30.52V60.664C527.268 64.792 528.516 66.136 532.26 66.136V67H515.268V66.136ZM567.989 67.864C561.749 67.864 558.965 62.968 558.965 52.312V30.04C558.965 25.816 557.717 24.856 554.165 26.104L553.877 25.336L565.205 20.92H565.781V52.312C565.781 59.704 567.221 62.872 571.637 62.872C575.189 62.872 577.589 60.76 580.085 58.36V30.04C580.085 25.816 578.837 24.856 575.285 26.104L574.997 25.336L586.325 20.92H586.901V59.512C586.901 63.736 588.245 64.696 591.797 63.544L591.989 64.312L580.661 67.864H580.085V59.8C577.205 63.832 573.365 67.864 567.989 67.864ZM593.174 66.136C597.11 66.136 598.358 64.792 598.358 60.664V30.04C598.358 25.816 597.11 24.856 593.558 26.104L593.27 25.336L604.598 20.92H605.174V29.176C607.958 25.048 611.606 20.92 617.174 20.92C621.782 20.92 624.566 23.608 625.526 29.176C628.694 24.76 632.534 20.92 638.006 20.92C643.958 20.92 646.838 25.432 646.838 35.128V60.664C646.838 64.792 648.086 66.136 652.022 66.136V67H635.03V66.136C638.774 66.136 640.022 64.792 640.022 60.664V35.128C640.022 28.6 638.486 25.912 634.262 25.912C630.806 25.912 628.406 28.024 625.718 30.52C625.91 31.96 626.006 33.496 626.006 35.128V60.664C626.006 64.792 627.254 66.136 631.094 66.136V67H614.198V66.136C618.038 66.136 619.286 64.792 619.286 60.664V35.128C619.286 28.6 617.75 25.912 613.43 25.912C609.878 25.912 607.574 28.12 605.174 30.52V60.664C605.174 64.792 606.422 66.136 610.166 66.136V67H593.174V66.136ZM652.893 66.136C656.829 66.136 658.077 64.792 658.077 60.664V30.04C658.077 25.816 656.829 24.856 653.277 26.104L652.989 25.336L664.317 20.92H664.893V29.176C667.677 25.048 671.325 20.92 676.893 20.92C681.501 20.92 684.285 23.608 685.245 29.176C688.413 24.76 692.253 20.92 697.725 20.92C703.677 20.92 706.557 25.432 706.557 35.128V60.664C706.557 64.792 707.805 66.136 711.741 66.136V67H694.749V66.136C698.493 66.136 699.741 64.792 699.741 60.664V35.128C699.741 28.6 698.205 25.912 693.981 25.912C690.525 25.912 688.125 28.024 685.437 30.52C685.629 31.96 685.725 33.496 685.725 35.128V60.664C685.725 64.792 686.973 66.136 690.813 66.136V67H673.917V66.136C677.757 66.136 679.005 64.792 679.005 60.664V35.128C679.005 28.6 677.469 25.912 673.149 25.912C669.597 25.912 667.293 28.12 664.893 30.52V60.664C664.893 64.792 666.141 66.136 669.885 66.136V67H652.893V66.136ZM728.836 67.96C719.236 67.96 713.668 57.976 713.668 45.496C713.668 30.904 720.676 20.92 729.988 20.92C738.148 20.92 743.044 27.928 743.236 39.544H719.812V41.656C719.812 54.52 724.9 61.24 731.716 61.24C736.42 61.24 740.548 58.072 742.66 50.104L743.332 50.2C741.892 59.224 737.092 67.96 728.836 67.96ZM720.004 37.24H736.324C736.036 28.792 733.828 23.032 729.028 23.032C724.036 23.032 720.868 28.792 720.004 37.24ZM745.424 66.136C749.36 66.136 750.608 64.792 750.608 60.664V30.04C750.608 25.816 749.36 24.856 745.808 26.104L745.52 25.336L756.848 20.92H757.424V31.864C760.208 25.624 763.664 20.92 767.984 20.92C770.768 20.92 772.592 22.648 772.592 25.24C772.592 27.64 770.96 29.464 768.656 29.464C767.312 29.464 766.256 28.984 765.296 28.12C764.336 27.256 763.856 26.872 762.896 26.872C761.264 26.872 759.632 29.56 757.424 33.688V60.664C757.424 64.792 758.672 66.136 762.704 66.136H763.664V67H745.424V66.136ZM785.936 67V66.136H786.608C791.6 66.136 793.04 64.6 793.04 59.512V14.104C793.04 10.168 791.984 8.344 789.488 8.344C788.336 8.344 787.088 8.824 785.648 9.496L785.264 8.632L799.376 1.23999H799.952V59.512C799.952 64.6 801.392 66.136 806.384 66.136V67H785.936ZM0.768 205.136C4.704 205.136 5.952 203.792 5.952 199.664V169.04C5.952 164.816 4.608 163.856 1.056 165.104L0.864 164.336L12.192 159.92H12.768V199.664C12.768 203.792 14.016 205.136 17.856 205.136V206H0.768V205.136ZM8.832 151.664C6.144 151.664 4.128 149.552 4.128 146.864C4.128 144.176 6.144 142.16 8.832 142.16C11.52 142.16 13.536 144.176 13.536 146.864C13.536 149.552 11.52 151.664 8.832 151.664ZM19.3305 205.136C23.2665 205.136 24.5145 203.792 24.5145 199.664V169.04C24.5145 164.816 23.2665 163.856 19.7145 165.104L19.4265 164.336L30.7545 159.92H31.3305V168.176C34.2105 164.048 38.0505 159.92 43.5225 159.92C49.6665 159.92 52.5465 164.816 52.5465 175.472V199.664C52.5465 203.792 53.7945 205.136 57.6345 205.136V206H40.7385V205.136C44.4825 205.136 45.7305 203.792 45.7305 199.664V175.472C45.7305 168.08 44.1945 164.912 39.8745 164.912C36.2265 164.912 33.8265 167.12 31.3305 169.52V199.664C31.3305 203.792 32.5785 205.136 36.3225 205.136V206H19.3305V205.136ZM116.453 206.96L82.8525 152.528V198.512C82.8525 203.408 84.5805 205.136 89.1885 205.136V206H73.6365V205.136C78.2445 205.136 79.9725 203.408 79.9725 198.512V148.016C77.0925 143.12 74.7885 142.064 71.4285 142.064V141.2H84.2925L114.341 190.256V148.688C114.341 143.792 112.613 142.064 108.005 142.064V141.2H123.269V142.064C118.949 142.064 117.221 143.792 117.221 148.688V206.96H116.453ZM140.673 206.96C130.305 206.96 124.353 196.112 124.353 183.44C124.353 170.96 130.881 159.92 140.865 159.92C151.329 159.92 157.281 170.768 157.281 183.44C157.281 195.824 150.849 206.96 140.673 206.96ZM141.441 204.848C146.817 204.848 149.889 198.128 149.889 188.144C149.889 172.784 146.817 162.032 140.289 162.032C134.817 162.032 131.745 168.656 131.745 178.736C131.745 194.096 134.817 204.848 141.441 204.848ZM177.048 206.96C166.68 206.96 160.728 196.112 160.728 183.44C160.728 170.96 167.256 159.92 177.24 159.92C187.704 159.92 193.656 170.768 193.656 183.44C193.656 195.824 187.224 206.96 177.048 206.96ZM177.816 204.848C183.192 204.848 186.264 198.128 186.264 188.144C186.264 172.784 183.192 162.032 176.664 162.032C171.192 162.032 168.12 168.656 168.12 178.736C168.12 194.096 171.192 204.848 177.816 204.848ZM196.143 205.136C200.079 205.136 201.327 203.792 201.327 199.664V169.04C201.327 164.816 200.079 163.856 196.527 165.104L196.239 164.336L207.567 159.92H208.143V170.864C210.927 164.624 214.383 159.92 218.703 159.92C221.487 159.92 223.311 161.648 223.311 164.24C223.311 166.64 221.679 168.464 219.375 168.464C218.031 168.464 216.975 167.984 216.015 167.12C215.055 166.256 214.575 165.872 213.615 165.872C211.983 165.872 210.351 168.56 208.143 172.688V199.664C208.143 203.792 209.391 205.136 213.423 205.136H214.383V206H196.143V205.136ZM247.458 198.608C244.194 203.408 240.546 206.96 235.554 206.96C227.97 206.96 223.074 198.416 223.074 186.224C223.074 169.424 230.946 159.92 240.354 159.92C242.85 159.92 245.346 160.784 247.458 162.128V148.4C247.458 144.176 246.114 143.216 242.562 144.464L242.37 143.696L253.602 139.28H254.274V198.512C254.274 202.736 255.618 203.696 259.17 202.544L259.362 203.312L247.938 206.864H247.458V198.608ZM229.986 181.712C229.986 196.4 233.634 201.776 239.106 201.776C242.37 201.776 244.674 199.856 247.458 197.264V166.832C245.154 163.28 242.466 162.032 240.066 162.032C234.306 162.032 229.986 168.848 229.986 181.712ZM306.671 205.136C311.663 205.136 313.103 203.6 313.103 198.512V173.648H288.431V198.512C288.431 203.6 289.967 205.136 294.959 205.136V206H274.991V205.136C279.983 205.136 281.423 203.6 281.423 198.512V148.688C281.423 143.6 279.983 142.064 274.991 142.064V141.2H294.959V142.064C289.967 142.064 288.431 143.6 288.431 148.688V170.96H313.103V148.688C313.103 143.6 311.663 142.064 306.671 142.064V141.2H326.639V142.064C321.647 142.064 320.111 143.6 320.111 148.688V198.512C320.111 203.6 321.647 205.136 326.639 205.136V206H306.671V205.136ZM344.111 206.96C333.743 206.96 327.791 196.112 327.791 183.44C327.791 170.96 334.319 159.92 344.303 159.92C354.767 159.92 360.719 170.768 360.719 183.44C360.719 195.824 354.286 206.96 344.111 206.96ZM344.879 204.848C350.255 204.848 353.327 198.128 353.327 188.144C353.327 172.784 350.255 162.032 343.727 162.032C338.255 162.032 335.183 168.656 335.183 178.736C335.183 194.096 338.255 204.848 344.879 204.848ZM363.014 205.136C366.95 205.136 368.198 203.792 368.198 199.664V148.4C368.198 144.176 366.95 143.216 363.398 144.464L363.11 143.696L374.438 139.28H375.014V199.664C375.014 203.792 376.166 205.136 380.102 205.136V206H363.014V205.136ZM381.295 205.136C385.231 205.136 386.479 203.792 386.479 199.664V148.4C386.479 144.176 385.231 143.216 381.679 144.464L381.391 143.696L392.719 139.28H393.295V199.664C393.295 203.792 394.447 205.136 398.383 205.136V206H381.295V205.136ZM425.592 206.672C423.192 206.672 421.08 204.848 421.08 199.664V198.992C418.488 202.736 414.36 206.864 409.368 206.864C404.472 206.864 400.536 202.832 400.536 196.208C400.536 188.816 405.144 184.208 411.96 180.848C414.744 179.504 417.624 178.064 421.08 176.624V173.072C421.08 164.912 419.064 161.84 414.936 161.84C412.536 161.84 410.904 162.8 409.944 164.528C408.984 166.736 409.08 169.328 408.888 171.44C408.792 174.224 407.352 175.568 405.432 175.568C403.416 175.568 401.976 174.128 401.976 171.536C401.976 165.776 408.024 159.92 416.28 159.92C423.576 159.92 427.8 164.048 427.8 173.84V197.36C427.8 200.336 428.088 201.68 429.432 201.68C430.488 201.68 431.544 200.912 433.272 198.704L433.848 199.184C430.872 204.08 428.28 206.672 425.592 206.672ZM407.352 193.52C407.352 199.76 410.232 202.064 413.304 202.064C415.8 202.064 418.296 200.528 421.08 197.744V178.832C418.104 180.08 415.8 181.328 414.264 182.192C409.752 184.88 407.352 188.048 407.352 193.52ZM433.424 205.136C437.36 205.136 438.608 203.792 438.608 199.664V169.04C438.608 164.816 437.36 163.856 433.808 165.104L433.52 164.336L444.848 159.92H445.424V168.176C448.304 164.048 452.144 159.92 457.616 159.92C463.76 159.92 466.64 164.816 466.64 175.472V199.664C466.64 203.792 467.888 205.136 471.728 205.136V206H454.832V205.136C458.576 205.136 459.824 203.792 459.824 199.664V175.472C459.824 168.08 458.288 164.912 453.968 164.912C450.32 164.912 447.92 167.12 445.424 169.52V199.664C445.424 203.792 446.672 205.136 450.416 205.136V206H433.424V205.136ZM498.146 198.608C494.882 203.408 491.234 206.96 486.242 206.96C478.658 206.96 473.762 198.416 473.762 186.224C473.762 169.424 481.634 159.92 491.042 159.92C493.538 159.92 496.034 160.784 498.146 162.128V148.4C498.146 144.176 496.802 143.216 493.25 144.464L493.058 143.696L504.29 139.28H504.962V198.512C504.962 202.736 506.306 203.696 509.858 202.544L510.05 203.312L498.626 206.864H498.146V198.608ZM480.674 181.712C480.674 196.4 484.322 201.776 489.794 201.776C493.058 201.776 495.362 199.856 498.146 197.264V166.832C495.842 163.28 493.154 162.032 490.754 162.032C484.994 162.032 480.674 168.848 480.674 181.712ZM538.172 185.456C534.62 177.392 535.964 171.824 540.764 165.296C544.508 160.304 546.044 156.368 546.044 150.992C546.044 146.384 544.316 142.64 539.42 142.64C535.964 142.64 534.14 144.656 533.468 146.48C532.412 148.688 532.508 151.184 532.412 153.2C532.316 156.176 530.684 157.616 528.668 157.616C526.556 157.616 525.02 156.176 525.02 153.488C525.02 147.824 530.492 140.24 539.708 140.24C547.868 140.24 552.572 146.192 552.572 153.104C552.572 159.056 550.172 163.664 545.18 169.52C540.38 175.088 538.268 178.544 538.94 185.456H538.172ZM538.268 206.96C535.58 206.96 533.372 204.752 533.372 202.064C533.372 199.28 535.58 197.072 538.268 197.072C541.052 197.072 543.164 199.28 543.164 202.064C543.164 204.752 541.052 206.96 538.268 206.96Z" fill="#11162E"/>
</svg>
