<svg width="1885" height="272" viewBox="0 0 1885 272" fill="none" xmlns="http://www.w3.org/2000/svg">
<path d="M238.356 135.838C238.356 157 235.939 175.96 231.105 192.718C226.271 209.476 218.913 223.709 209.03 235.418C199.255 247.02 186.901 255.936 171.97 262.166C157.038 268.396 139.475 271.512 119.279 271.512C99.084 271.512 81.5205 268.45 66.5889 262.327C51.7646 256.097 39.4111 247.181 29.5283 235.579C19.6455 223.87 12.2871 209.69 7.45312 193.04C2.61914 176.282 0.202148 157.376 0.202148 136.321C0.202148 114.944 2.61914 95.8232 7.45312 78.958C12.3945 61.9854 19.8066 47.6982 29.6895 36.0967C39.5723 24.3877 51.9795 15.4717 66.9111 9.34863C81.8428 3.11816 99.2988 0.00292969 119.279 0.00292969C139.367 0.00292969 156.877 3.11816 171.809 9.34863C186.74 15.5791 199.094 24.5488 208.869 36.2578C218.752 47.8594 226.11 62.0928 230.944 78.958C235.886 95.7158 238.356 114.676 238.356 135.838ZM64.333 135.354C64.333 147.493 65.085 159.041 66.5889 169.998C68.0928 180.848 70.8857 190.408 74.9678 198.68C79.0498 206.844 84.6357 213.343 91.7256 218.177C98.8154 223.011 108 225.428 119.279 225.428C130.666 225.428 139.958 222.957 147.155 218.016C154.353 212.967 159.938 206.307 163.913 198.035C167.995 189.656 170.734 180.042 172.131 169.192C173.635 158.343 174.387 147.063 174.387 135.354C174.387 123.323 173.581 111.937 171.97 101.194C170.466 90.3447 167.619 80.8379 163.43 72.6738C159.348 64.5098 153.708 58.0645 146.511 53.3379C139.421 48.5039 130.29 46.0869 119.118 46.0869C107.839 46.0869 98.6543 48.5039 91.5645 53.3379C84.4746 58.1719 78.8887 64.7246 74.8066 72.9961C70.832 81.1602 68.0928 90.6133 66.5889 101.355C65.085 112.098 64.333 123.431 64.333 135.354ZM438 267L338.098 93.6211V267H281.218V4.35352H348.894L447.023 175.154V4.35352H503.742V267H438ZM739.802 192.234C739.802 217.801 731.53 237.405 714.987 251.048C698.552 264.69 674.328 271.512 642.316 271.512C628.566 271.512 615.891 270.169 604.289 267.483C592.795 264.905 582.751 262.005 574.157 258.782C564.167 255.13 555.036 250.887 546.765 246.053L560.3 201.419C560.3 201.419 561.75 202.01 564.65 203.191C567.551 204.48 571.311 206.038 575.93 207.864C580.656 209.583 586.027 211.517 592.043 213.665C598.166 215.706 604.396 217.64 610.734 219.466C617.072 221.185 623.249 222.635 629.265 223.816C635.388 224.998 640.92 225.589 645.861 225.589C657.57 225.589 666.271 223.924 671.965 220.594C677.658 217.264 680.505 211.463 680.505 203.191C680.505 199.969 680.129 196.961 679.377 194.168C678.732 191.375 677.604 188.743 675.993 186.272C674.382 183.802 672.18 181.546 669.387 179.505C666.701 177.464 663.264 175.53 659.074 173.704L592.365 145.506C576.145 138.738 563.952 129.446 555.788 117.63C547.624 105.706 543.542 91.3652 543.542 74.6074C543.542 66.0137 544.885 58.2256 547.57 51.2432C550.256 44.1533 553.908 37.8691 558.527 32.3906C563.254 26.8047 568.732 22.0244 574.963 18.0498C581.301 13.9678 588.068 10.584 595.266 7.89844C602.57 5.21289 610.144 3.22559 617.985 1.93652C625.827 0.647461 633.615 0.00292969 641.35 0.00292969C650.158 0.00292969 658.537 0.540039 666.486 1.61426C674.436 2.68848 681.794 4.08496 688.562 5.80371C695.329 7.41504 701.398 9.1875 706.77 11.1211C712.248 13.0547 716.867 14.8809 720.627 16.5996C724.494 18.2109 727.448 19.5537 729.489 20.6279L732.39 22.2393L717.565 63.9727L714.665 62.6836C712.839 61.8242 710.314 60.75 707.092 59.4609C703.869 58.0645 700.002 56.6143 695.49 55.1104C691.086 53.499 686.306 52.0488 681.149 50.7598C675.993 49.3633 670.568 48.2354 664.875 47.376C659.182 46.5166 653.488 46.0869 647.795 46.0869C642.961 46.0869 637.805 46.3018 632.326 46.7314C626.955 47.1611 621.96 48.1816 617.341 49.793C612.829 51.4043 609.069 53.7676 606.062 56.8828C603.054 59.998 601.55 64.2412 601.55 69.6123C601.55 70.9014 601.604 72.3516 601.711 73.9629C601.926 75.4668 602.624 77.1318 603.806 78.958C604.987 80.6768 606.867 82.5029 609.445 84.4365C612.023 86.3701 615.729 88.3037 620.563 90.2373L680.505 114.407C689.851 118.167 698.176 122.518 705.48 127.459C712.893 132.4 719.123 138.04 724.172 144.378C729.328 150.716 733.195 157.859 735.773 165.809C738.459 173.65 739.802 182.459 739.802 192.234ZM1035.8 4.35352L1068.83 187.4L1103.64 4.35352H1165.68L1109.28 266.839H1040.48L1001.96 68.1621L964.099 267H894.65L838.576 4.35352H900.773L935.417 187.4L968.449 4.35352H1035.8ZM1195.16 267V4.35352H1374.99V44.7979H1259.29V111.668H1360V151.146H1259.29V227.522H1376.44V267H1195.16ZM1480.85 116.824C1492.78 116.824 1503.25 116.395 1512.27 115.535C1521.4 114.676 1528.98 112.903 1534.99 110.218C1541.12 107.532 1545.73 103.772 1548.85 98.9385C1551.96 93.9971 1553.52 87.5518 1553.52 79.6025C1553.52 72.5127 1552.45 66.7119 1550.3 62.2002C1548.15 57.6885 1544.61 54.1436 1539.67 51.5654C1534.72 48.9873 1528.17 47.2148 1520.01 46.248C1511.95 45.1738 1501.96 44.6367 1490.04 44.6367H1477.95V116.824H1480.85ZM1538.86 136.321C1550.46 137.503 1561.2 139.49 1571.09 142.283C1580.97 144.969 1589.46 148.89 1596.54 154.046C1603.74 159.202 1609.38 165.809 1613.46 173.865C1617.55 181.922 1619.59 191.858 1619.59 203.675V267H1556.1V199.324C1556.1 190.945 1554.81 183.963 1552.23 178.377C1549.66 172.684 1545.84 168.172 1540.79 164.842C1535.74 161.404 1529.51 158.987 1522.1 157.591C1514.69 156.194 1506.15 155.496 1496.48 155.496H1477.95V267H1413.66V4.35352H1482.62C1500.67 4.35352 1516.52 4.99805 1530.16 6.28711C1543.91 7.57617 1555.78 9.50977 1565.77 12.0879C1575.76 14.666 1584.03 17.8887 1590.58 21.7559C1597.24 25.5156 1602.56 29.9199 1606.54 34.9688C1610.51 39.9102 1613.3 45.4961 1614.91 51.7266C1616.63 57.957 1617.49 64.7246 1617.49 72.0293C1617.49 83.6309 1615.56 93.4063 1611.69 101.355C1607.82 109.197 1602.4 115.589 1595.42 120.53C1588.43 125.472 1580.11 129.178 1570.44 131.648C1560.88 134.012 1550.35 135.569 1538.86 136.321ZM1725.13 267H1660.84V4.35352H1725.13V117.146H1736.41L1808.27 4.35352H1875.63L1787.17 135.193L1884.49 267H1812.3L1735.12 156.624H1725.13V267Z" fill="#11162E"/>
</svg>
