<svg width="1890" height="286" viewBox="0 0 1890 286" fill="none" xmlns="http://www.w3.org/2000/svg">
<path d="M251.389 143.081C251.389 165.333 248.847 185.27 243.764 202.891C238.681 220.512 230.944 235.479 220.552 247.791C210.273 259.99 197.283 269.366 181.582 275.917C165.881 282.468 147.413 285.744 126.177 285.744C104.942 285.744 86.4733 282.525 70.7725 276.086C55.1846 269.535 42.1947 260.16 31.8027 247.96C21.4108 235.648 13.6733 220.738 8.59033 203.23C3.50732 185.609 0.96582 165.729 0.96582 143.589C0.96582 121.111 3.50732 101.005 8.59033 83.271C13.7863 65.424 21.5802 50.4009 31.9722 38.2017C42.3641 25.8895 55.4105 16.5142 71.1113 10.0757C86.8122 3.52425 105.167 0.248535 126.177 0.248535C147.3 0.248535 165.712 3.52425 181.413 10.0757C197.113 16.6271 210.103 26.0589 220.382 38.3711C230.774 50.5703 238.512 65.5369 243.595 83.271C248.791 100.892 251.389 120.829 251.389 143.081ZM68.4004 142.573C68.4004 155.337 69.1911 167.479 70.7725 179.001C72.3538 190.41 75.2907 200.463 79.583 209.16C83.8753 217.745 89.749 224.579 97.2041 229.662C104.659 234.745 114.317 237.286 126.177 237.286C138.151 237.286 147.921 234.688 155.489 229.492C163.057 224.183 168.931 217.18 173.11 208.482C177.403 199.672 180.283 189.562 181.751 178.154C183.333 166.745 184.124 154.885 184.124 142.573C184.124 129.922 183.276 117.948 181.582 106.653C180.001 95.2443 177.007 85.2477 172.602 76.6631C168.31 68.0785 162.38 61.3011 154.812 56.3311C147.356 51.248 137.755 48.7065 126.008 48.7065C114.147 48.7065 104.49 51.248 97.0347 56.3311C89.5796 61.4141 83.7059 68.3044 79.4136 77.002C75.2342 85.5866 72.3538 95.5267 70.7725 106.822C69.1911 118.118 68.4004 130.035 68.4004 142.573ZM393.882 187.473L448.271 4.82324H511.978L426.075 281H359.996L274.262 4.82324H337.122L393.882 187.473ZM543.492 281V4.82324H732.58V47.3511H610.927V117.666H716.823V159.177H610.927V239.489H734.105V281H543.492ZM843.898 123.088C856.436 123.088 867.449 122.636 876.938 121.732C886.539 120.829 894.502 118.965 900.828 116.141C907.266 113.317 912.123 109.364 915.399 104.281C918.675 99.0848 920.312 92.3075 920.312 83.9487C920.312 76.4937 919.183 70.394 916.924 65.6499C914.665 60.9058 910.937 57.1782 905.741 54.4673C900.545 51.7563 893.655 49.8926 885.07 48.876C876.599 47.7464 866.094 47.1816 853.556 47.1816H840.848V123.088H843.898ZM904.894 143.589C917.093 144.832 928.389 146.922 938.781 149.858C949.173 152.682 958.096 156.805 965.551 162.227C973.119 167.649 979.049 174.596 983.342 183.067C987.634 191.539 989.78 201.987 989.78 214.413V281H923.023V209.838C923.023 201.027 921.668 193.685 918.957 187.812C916.246 181.825 912.236 177.081 906.927 173.579C901.618 169.965 895.067 167.423 887.273 165.955C879.479 164.486 870.499 163.752 860.333 163.752H840.848V281H773.244V4.82324H845.762C864.738 4.82324 881.399 5.50098 895.745 6.85645C910.203 8.21191 922.685 10.2451 933.189 12.9561C943.694 15.667 952.392 19.0557 959.282 23.1221C966.285 27.0755 971.877 31.7067 976.056 37.0156C980.236 42.2116 983.172 48.0853 984.867 54.6367C986.674 61.1882 987.578 68.3044 987.578 75.9854C987.578 88.1846 985.544 98.4635 981.478 106.822C977.412 115.068 971.707 121.789 964.365 126.985C957.023 132.181 948.269 136.078 938.103 138.676C928.05 141.161 916.98 142.799 904.894 143.589ZM1362.2 143.081C1362.2 165.333 1359.65 185.27 1354.57 202.891C1349.49 220.512 1341.75 235.479 1331.36 247.791C1321.08 259.99 1308.09 269.366 1292.39 275.917C1276.69 282.468 1258.22 285.744 1236.98 285.744C1215.75 285.744 1197.28 282.525 1181.58 276.086C1165.99 269.535 1153 260.16 1142.61 247.96C1132.22 235.648 1124.48 220.738 1119.4 203.23C1114.31 185.609 1111.77 165.729 1111.77 143.589C1111.77 121.111 1114.31 101.005 1119.4 83.271C1124.59 65.424 1132.39 50.4009 1142.78 38.2017C1153.17 25.8895 1166.22 16.5142 1181.92 10.0757C1197.62 3.52425 1215.97 0.248535 1236.98 0.248535C1258.11 0.248535 1276.52 3.52425 1292.22 10.0757C1307.92 16.6271 1320.91 26.0589 1331.19 38.3711C1341.58 50.5703 1349.32 65.5369 1354.4 83.271C1359.6 100.892 1362.2 120.829 1362.2 143.081ZM1179.21 142.573C1179.21 155.337 1180 167.479 1181.58 179.001C1183.16 190.41 1186.1 200.463 1190.39 209.16C1194.68 217.745 1200.56 224.579 1208.01 229.662C1215.47 234.745 1225.12 237.286 1236.98 237.286C1248.96 237.286 1258.73 234.688 1266.3 229.492C1273.86 224.183 1279.74 217.18 1283.92 208.482C1288.21 199.672 1291.09 189.562 1292.56 178.154C1294.14 166.745 1294.93 154.885 1294.93 142.573C1294.93 129.922 1294.08 117.948 1292.39 106.653C1290.81 95.2443 1287.81 85.2477 1283.41 76.6631C1279.12 68.0785 1273.19 61.3011 1265.62 56.3311C1258.16 51.248 1248.56 48.7065 1236.81 48.7065C1224.95 48.7065 1215.3 51.248 1207.84 56.3311C1200.39 61.4141 1194.51 68.3044 1190.22 77.002C1186.04 85.5866 1183.16 95.5267 1181.58 106.822C1180 118.118 1179.21 130.035 1179.21 142.573ZM1572.12 281L1467.07 98.6895V281H1407.26V4.82324H1478.43L1581.61 184.423V4.82324H1641.25V281H1572.12ZM1889.47 202.383C1889.47 229.266 1880.78 249.881 1863.38 264.226C1846.1 278.571 1820.63 285.744 1786.97 285.744C1772.51 285.744 1759.18 284.332 1746.98 281.508C1734.89 278.797 1724.33 275.748 1715.29 272.359C1704.79 268.518 1695.19 264.057 1686.49 258.974L1700.72 212.041C1700.72 212.041 1702.25 212.662 1705.3 213.904C1708.35 215.26 1712.3 216.898 1717.16 218.818C1722.13 220.625 1727.78 222.658 1734.1 224.917C1740.54 227.064 1747.09 229.097 1753.76 231.017C1760.42 232.824 1766.92 234.349 1773.24 235.592C1779.68 236.834 1785.5 237.456 1790.69 237.456C1803.01 237.456 1812.15 235.705 1818.14 232.203C1824.13 228.701 1827.12 222.602 1827.12 213.904C1827.12 210.516 1826.73 207.353 1825.94 204.416C1825.26 201.479 1824.07 198.712 1822.38 196.114C1820.68 193.516 1818.37 191.144 1815.43 188.998C1812.61 186.851 1808.99 184.818 1804.59 182.898L1734.44 153.247C1717.38 146.131 1704.56 136.36 1695.98 123.935C1687.39 111.397 1683.1 96.3174 1683.1 78.6963C1683.1 69.6598 1684.51 61.4705 1687.34 54.1284C1690.16 46.6733 1694 40.0654 1698.86 34.3047C1703.83 28.431 1709.59 23.4045 1716.14 19.2251C1722.81 14.9328 1729.92 11.3747 1737.49 8.55078C1745.17 5.72689 1753.14 3.63721 1761.38 2.28174C1769.63 0.92627 1777.82 0.248535 1785.95 0.248535C1795.21 0.248535 1804.02 0.813314 1812.38 1.94287C1820.74 3.07243 1828.48 4.54085 1835.59 6.34814C1842.71 8.04248 1849.09 9.90625 1854.74 11.9395C1860.5 13.9727 1865.36 15.8929 1869.31 17.7002C1873.38 19.3945 1876.48 20.8065 1878.63 21.936L1881.68 23.6304L1866.09 67.5137L1863.04 66.1582C1861.12 65.2546 1858.47 64.125 1855.08 62.7695C1851.69 61.3011 1847.62 59.7762 1842.88 58.1948C1838.25 56.5005 1833.22 54.9756 1827.8 53.6201C1822.38 52.1517 1816.67 50.9657 1810.69 50.062C1804.7 49.1584 1798.71 48.7065 1792.73 48.7065C1787.64 48.7065 1782.22 48.9325 1776.46 49.3843C1770.81 49.8361 1765.56 50.9092 1760.7 52.6035C1755.96 54.2979 1752.01 56.7829 1748.84 60.0586C1745.68 63.3343 1744.1 67.7961 1744.1 73.4438C1744.1 74.7993 1744.16 76.3242 1744.27 78.0186C1744.49 79.5999 1745.23 81.3507 1746.47 83.271C1747.71 85.0783 1749.69 86.9985 1752.4 89.0317C1755.11 91.0649 1759.01 93.0981 1764.09 95.1313L1827.12 120.546C1836.95 124.5 1845.7 129.075 1853.38 134.271C1861.18 139.466 1867.73 145.397 1873.04 152.061C1878.46 158.725 1882.53 166.237 1885.24 174.596C1888.06 182.841 1889.47 192.104 1889.47 202.383Z" fill="#11162E"/>
</svg>
