<svg width="59" height="79" viewBox="0 0 59 79" fill="none" xmlns="http://www.w3.org/2000/svg">
<g clip-path="url(#clip0_6_114)">
<path d="M13.8825 24.3111V79L32.8317 65.5486V14.3853L13.8825 24.3111Z" fill="#10185A"/>
<path d="M51.7809 24.3111V79L32.8317 65.5486V14.3853L51.7809 24.3111Z" fill="#10185A"/>
<path d="M10.5202 21.9201V76.6089L29.4695 63.1581V11.9938L10.5202 21.9201Z" fill="#98C5FF"/>
<path d="M48.4187 21.9201V76.6089L29.4694 63.1581V11.9938L48.4187 21.9201Z" fill="#5788FF"/>
<path fill-rule="evenodd" clip-rule="evenodd" d="M28.86 58.6998C29.8547 58.6998 30.7163 58.0961 31.0813 57.2292C31.5448 58.0512 32.4727 58.5565 33.4724 58.4362C33.493 58.4342 33.5608 58.4247 33.5809 58.4217C34.5806 58.2754 35.3494 57.5373 35.5768 56.617C36.1784 57.3651 37.2022 57.7076 38.1758 57.4065L38.2024 57.398C39.1831 57.1028 39.8349 56.2415 39.9061 55.2827C40.6297 55.9344 41.7093 56.1056 42.6232 55.6397C43.5506 55.1898 44.0582 54.2255 43.9659 53.2598C44.7793 53.7866 45.8704 53.7896 46.7029 53.1914L45.315 51.2343L46.7145 53.1829C47.5475 52.5911 47.8875 51.5689 47.6479 50.6386C48.5292 51.0226 49.5952 50.8558 50.3173 50.1377L50.3509 50.1042C50.9539 49.5046 51.1633 48.6731 50.9881 47.9061C51.7819 47.962 52.5884 47.6349 53.1015 46.9553C53.1029 46.9535 53.1099 46.944 53.1174 46.9339C53.1268 46.9214 53.137 46.9078 53.1387 46.9058C53.7473 46.0879 53.7467 45.0237 53.2281 44.2173C54.2097 44.3276 55.1964 43.8372 55.6629 42.9154C56.1369 42.025 55.9887 40.9709 55.3706 40.2458C56.3398 40.1869 57.2104 39.5507 57.5097 38.5689L55.2345 37.785L57.5117 38.5635C57.8466 37.5937 57.5202 36.557 56.7705 35.9398C57.6899 35.738 58.4437 35.007 58.6229 34.0282C58.6279 34.0017 58.6395 33.9273 58.644 33.9014C58.7896 32.9117 58.3076 31.9658 57.4951 31.48C58.3774 31.1244 59 30.264 59 29.2593V29.2114C59 28.1857 58.3517 27.3252 57.4409 26.9907C58.2694 26.5098 58.7615 25.561 58.6089 24.5613L58.5918 24.4569C58.4166 23.4682 57.6533 22.7261 56.7234 22.5259C57.4535 21.9126 57.7738 20.896 57.4529 19.9391L57.4303 19.8727C57.0985 18.9119 56.2167 18.3037 55.2562 18.2678C55.8833 17.5487 56.043 16.4951 55.577 15.5987L55.5394 15.5278C55.0578 14.6299 54.0887 14.1635 53.1302 14.2819C53.6202 13.4869 53.6157 12.4442 53.0368 11.6372C53.0081 11.5978 52.979 11.5583 52.9484 11.5204C52.3258 10.7244 51.2989 10.4293 50.384 10.6934C50.74 9.82701 50.5643 8.79533 49.8573 8.09223C49.8337 8.06873 49.7749 8.01284 49.7503 7.99039C49.0082 7.31171 47.9567 7.18591 47.0981 7.58834C47.316 6.65206 46.9515 5.63785 46.1034 5.06609L46.0642 5.03912C45.2146 4.46585 44.1411 4.51279 43.3527 5.06658C43.4221 4.11579 42.9139 3.17549 41.9985 2.73555L41.8971 2.68911C40.9797 2.27513 39.9333 2.48187 39.2428 3.13005C39.1464 2.20772 38.5123 1.38477 37.5648 1.09064C37.5438 1.08384 37.496 1.07018 37.4619 1.06048C37.4509 1.05735 37.4414 1.05464 37.4347 1.05269C36.4691 0.792521 35.4694 1.14857 34.8854 1.88463C34.6243 0.957809 33.8159 0.244719 32.7925 0.154833L32.5028 2.53281L32.7845 0.154334C31.7632 0.0324888 30.8237 0.564312 30.3728 1.41423C29.9862 0.557321 29.1195 -0.0279343 28.1042 0.00102884C28.0811 0.00202756 28.0093 0.00552312 27.9857 0.00702119C26.9804 0.0659459 26.1489 0.730098 25.8391 1.62296C25.3109 0.834971 24.3378 0.400521 23.3481 0.604261C23.3431 0.60526 23.2913 0.615746 23.2868 0.616745C22.2866 0.827479 21.5776 1.62546 21.4289 2.57026C20.7722 1.85017 19.7157 1.57652 18.7546 1.96353L19.5922 4.20917L18.7466 1.96653C17.781 2.32707 17.1844 3.23741 17.1835 4.20668C16.4208 3.61243 15.3391 3.51356 14.4594 4.03889L15.6565 6.11675L14.4394 4.05038C13.5551 4.56522 13.1238 5.55446 13.2799 6.50225C12.4444 6.04734 11.3814 6.11126 10.5986 6.74594L10.5273 6.80486C9.7525 7.45707 9.49588 8.4902 9.7997 9.39205C8.91749 9.08144 7.8946 9.29922 7.21974 10.0273C7.19721 10.0522 7.14344 10.1127 7.12183 10.1381C6.4691 10.9052 6.38775 11.9598 6.83213 12.7967C5.88412 12.621 4.88589 13.0264 4.34761 13.8894L4.32251 13.9298C3.7787 14.8017 3.8731 15.8724 4.46913 16.6344C3.49852 16.6044 2.55803 17.1747 2.16839 18.126L4.38075 19.0713L2.15985 18.1449C1.76719 19.0763 2.01122 20.1149 2.69411 20.7816C1.73154 20.9264 0.920102 21.6415 0.711719 22.6477L3.05062 23.2185L0.710214 22.6542C0.467686 23.6469 0.886962 24.6457 1.68635 25.192C0.786536 25.4756 0.100632 26.2731 0.0127602 27.2663C0.0103188 27.2886 0.00597805 27.3563 0.0043554 27.3817L0.00422408 27.3837C-0.0545247 28.3779 0.504844 29.2723 1.35093 29.6868C0.487269 30.1282 -0.0535204 31.0625 0.0669895 32.0802L2.46665 31.8779L0.0679939 32.0887C0.157372 33.1029 0.871397 33.9134 1.79932 34.1795C1.03258 34.7333 0.635899 35.7116 0.872902 36.6838C0.87623 36.6971 0.884098 36.7271 0.891046 36.7536C0.89564 36.7711 0.89983 36.7871 0.902024 36.7957C1.16715 37.7625 1.99164 38.4336 2.93363 38.552C2.26329 39.2291 2.03683 40.2693 2.44355 41.1921L2.47469 41.262C2.89396 42.1844 3.8249 42.6987 4.78195 42.6617C4.22158 43.4362 4.16082 44.5039 4.71165 45.3558L4.74881 45.4132C5.31069 46.2652 6.31746 46.6387 7.26396 46.433C6.83863 47.2808 6.94563 48.3365 7.61544 49.0895L7.67921 49.16C8.36766 49.904 9.41806 50.1148 10.3139 49.7752C10.0347 50.6815 10.3164 51.7067 11.1042 52.3389C11.1153 52.3484 11.1645 52.3869 11.1765 52.3958C11.9819 53.0191 13.0499 53.0455 13.8734 52.5492C13.7314 53.5079 14.1872 54.4977 15.0886 54.996L16.2942 52.9227L15.1072 55.0065C15.9944 55.5059 17.0655 55.3851 17.8121 54.7828C17.8423 55.7451 18.4543 56.6294 19.4255 56.961L20.2791 54.7224L19.4335 56.9645C20.4006 57.3246 21.45 57.0279 22.0917 56.2999C22.2685 57.2177 22.981 57.9857 23.9581 58.192L24.0862 58.2164C25.0708 58.3902 26.0294 57.9433 26.5441 57.1588C26.886 58.0597 27.7537 58.6983 28.7801 58.6983L28.8594 56.3049L28.7886 58.6988C28.8131 58.6998 28.8365 58.6998 28.86 58.6998ZM28.8117 53.9089C28.8353 53.9089 28.9066 53.9105 28.9302 53.9109C29.8069 53.9364 30.5606 54.4253 30.9608 55.1344C31.2842 54.3663 32.0022 53.7886 32.8935 53.6812C33.7697 53.5514 34.6022 53.9124 35.1179 54.5531C35.3122 53.7646 35.9037 53.094 36.7398 52.8348L36.8055 52.8143C37.6446 52.5611 38.5163 52.7858 39.1228 53.3332C39.1821 52.5416 39.6355 51.7966 40.3917 51.3952C40.4329 51.3732 40.4761 51.3522 40.5193 51.3312C41.3061 50.9527 42.1999 51.0371 42.8838 51.481C42.8064 50.6761 43.1409 49.8546 43.8418 49.3383L43.9152 49.2853C44.6307 48.7764 45.5305 48.714 46.2817 49.0406C46.0773 48.2476 46.2872 47.3712 46.9118 46.751C47.433 46.2327 48.138 46 48.8264 46.0484C48.6758 45.3867 48.8073 44.6662 49.2482 44.0809C49.7845 43.3698 50.6522 43.0338 51.4817 43.1266C51.0479 42.4495 50.967 41.5711 51.3441 40.7951C51.3657 40.7521 51.3873 40.7102 51.4094 40.6688C51.8171 39.9078 52.5798 39.4553 53.3857 39.4049C52.8716 38.7981 52.6672 37.9477 52.9147 37.1353C52.9228 37.1073 52.9474 37.0339 52.9574 37.0064C53.2401 36.187 53.9255 35.6192 54.7179 35.4449C54.0697 34.9106 53.7231 34.0532 53.8844 33.1713C54.0129 32.3024 54.5938 31.6193 55.3546 31.3141C54.6531 30.8957 54.1836 30.1317 54.1836 29.2593C54.1836 28.3719 54.6687 27.5869 55.3887 27.1655C54.5959 26.8718 53.9833 26.1702 53.8472 25.2793C53.6931 24.4099 54.0315 23.5691 54.6632 23.0382C53.8587 22.8654 53.1638 22.2871 52.8841 21.4537C52.5939 20.6138 52.7978 19.7185 53.344 19.0902C52.506 19.0578 51.7097 18.5894 51.2974 17.7954C50.8801 17.0174 50.9369 16.11 51.3687 15.4069C50.5322 15.5093 49.672 15.1692 49.1392 14.4511C48.6035 13.7515 48.5121 12.8482 48.8244 12.0867C48.0205 12.3174 47.1197 12.1231 46.479 11.5064C45.8313 10.9007 45.5928 10.0198 45.779 9.21384C45.0359 9.56288 44.13 9.5224 43.3989 9.02957C42.6578 8.52871 42.2767 7.68426 42.335 6.85134C41.643 7.3337 40.7176 7.44055 39.9012 7.04759C39.0927 6.68452 38.5866 5.93398 38.5017 5.11652C37.8896 5.69179 36.9913 5.93198 36.1287 5.66283C35.2856 5.43361 34.6785 4.78993 34.4601 4.01292C33.9696 4.62964 33.1847 5.00217 32.3396 4.92327L32.2222 4.91128C31.3494 4.80941 30.6414 4.25512 30.3055 3.51306C29.9133 4.25112 29.1446 4.76297 28.2468 4.78943C27.3575 4.84636 26.5672 4.41191 26.1108 3.72929C25.8426 4.5028 25.1829 5.11902 24.3187 5.29579C23.4535 5.47456 22.5863 5.16545 22.0265 4.55623C21.8959 5.36121 21.3566 6.08279 20.5437 6.41087L20.4377 6.45182C19.6223 6.75595 18.7456 6.59117 18.1068 6.09477C18.1048 6.90677 17.6881 7.69776 16.9369 8.14569L16.9175 8.15734C16.9008 8.16728 16.8792 8.18025 16.8747 8.18315C16.1164 8.62456 15.2151 8.60659 14.4971 8.21607C14.6307 9.03352 14.3334 9.89791 13.6409 10.4587C12.9621 11.0305 12.0568 11.1638 11.276 10.8882C11.5411 11.6772 11.3839 12.58 10.7899 13.2422C10.2109 13.9093 9.33924 14.186 8.52378 14.0337C8.90893 14.7612 8.90741 15.6666 8.43992 16.4151C7.96898 17.1697 7.14397 17.5932 6.30289 17.5612C6.81006 18.2138 6.96472 19.1092 6.63027 19.9287L6.62415 19.9434C6.61638 19.9619 6.60422 19.991 6.60166 19.9976C6.26473 20.795 5.54418 21.3174 4.74329 21.4392C5.31069 21.996 5.59238 22.8235 5.42015 23.6544L5.39103 23.7823C5.18516 24.6272 4.55198 25.2584 3.77519 25.5021C4.46662 25.976 4.88941 26.7964 4.81007 27.6873C4.75835 28.5612 4.24217 29.2933 3.51409 29.6658C4.2271 30.0153 4.75384 30.7095 4.85325 31.5509L4.86531 31.6672C4.94264 32.5376 4.54193 33.3401 3.87913 33.818C4.68253 34.0487 5.34232 34.6894 5.55372 35.5553C5.78721 36.4062 5.52761 37.2711 4.94816 37.8563C5.7621 37.9577 6.50324 38.4706 6.85626 39.2725C7.22379 40.0825 7.10327 40.9934 6.61622 41.6685C7.44825 41.6186 8.27976 42.0175 8.76283 42.7656C9.25087 43.5062 9.27599 44.421 8.90588 45.1626C9.7299 44.9843 10.6242 45.2424 11.2227 45.9161C11.8227 46.5648 11.995 47.4537 11.754 48.2396C12.5297 47.9455 13.4376 48.0569 14.13 48.6132C14.8199 49.1675 15.1312 50.0298 15.0118 50.8488C15.7238 50.4234 16.6361 50.3749 17.4154 50.8024C17.4235 50.8069 17.4737 50.8349 17.4812 50.8393C18.2394 51.2663 18.6748 52.0408 18.7014 52.8473C19.3295 52.3434 20.1992 52.1617 21.0167 52.4413C21.0378 52.4478 21.1046 52.4717 21.1251 52.4802C21.9396 52.7838 22.4914 53.48 22.6446 54.2719C23.2009 53.6407 24.0737 53.3177 24.9569 53.5059C25.8211 53.6582 26.4878 54.2485 26.7756 55.0065C27.2089 54.3464 27.9616 53.9089 28.8117 53.9089ZM53.9717 42.0281L53.93 42.0071L53.5339 41.7959L53.9717 42.0281ZM41.7922 53.9478L41.7696 53.9039L41.5682 53.4869L41.7922 53.9478Z" fill="#E7815F"/>
<path d="M2.93363 38.552C2.26329 39.2291 2.03683 40.2693 2.44355 41.1921L2.47469 41.262C2.89396 42.1844 3.8249 42.6987 4.78195 42.6617C4.22158 43.4362 4.16082 44.5039 4.71165 45.3558L4.74881 45.4132C5.31069 46.2652 6.31745 46.6387 7.26396 46.433C6.83863 47.2808 6.94563 48.3365 7.61544 49.0895L7.67921 49.16C8.02672 49.535 8.46603 49.7742 8.93154 49.8761L11.8022 47.0207C11.7138 46.6212 11.5215 46.2392 11.2227 45.9161C10.6242 45.2424 9.7299 44.9843 8.90588 45.1626C9.27599 44.421 9.25087 43.5062 8.76283 42.7656C8.27975 42.0175 7.44825 41.6186 6.61622 41.6685C7.10327 40.9934 7.22379 40.0825 6.85626 39.2725C6.50324 38.4706 5.7621 37.9577 4.94816 37.8563C5.52761 37.2711 5.78721 36.4062 5.55372 35.5553C5.34232 34.6894 4.68253 34.0487 3.87913 33.818C4.54193 33.3401 4.94263 32.5376 4.86531 31.6672L4.85325 31.5509C4.75384 30.7095 4.2271 30.0153 3.51409 29.6658C4.24217 29.2933 4.75835 28.5612 4.81007 27.6873C4.88941 26.7964 4.46662 25.976 3.77519 25.5021C4.55198 25.2584 5.18516 24.6272 5.39103 23.7823L5.42015 23.6544C5.59238 22.8235 5.31069 21.996 4.74329 21.4392C5.54418 21.3174 6.26473 20.795 6.60166 19.9976C6.60517 19.9886 6.62676 19.9372 6.63027 19.9287C6.96472 19.1092 6.81006 18.2138 6.30289 17.5612C7.14397 17.5932 7.96898 17.1697 8.43992 16.4151C8.90741 15.6666 8.90893 14.7612 8.52378 14.0337C9.33924 14.186 10.2109 13.9093 10.7899 13.2422C11.3839 12.58 11.5411 11.6772 11.276 10.8882C12.0567 11.1638 12.9621 11.0305 13.6409 10.4587C14.3334 9.89791 14.6307 9.03352 14.4971 8.21607C15.2151 8.60659 16.1164 8.62456 16.8747 8.18315C16.8817 8.17861 16.9304 8.14964 16.9369 8.14569C17.6881 7.69776 18.1048 6.90677 18.1068 6.09477C18.7456 6.59117 19.6223 6.75595 20.4377 6.45182L20.5437 6.41087C21.3566 6.08279 21.8959 5.36121 22.0265 4.55623C22.5863 5.16545 23.4535 5.47456 24.3187 5.29579C25.1829 5.11902 25.8426 4.5028 26.1107 3.72929C26.5672 4.41191 27.3575 4.84636 28.2468 4.78943C29.1446 4.76297 29.9133 4.25112 30.3055 3.51306C30.6414 4.25512 31.3494 4.80941 32.2222 4.91128L32.3396 4.92327C33.1847 5.00216 33.9695 4.62964 34.4601 4.01292C34.6785 4.78993 35.2856 5.43361 36.1287 5.66283C36.9913 5.93198 37.8896 5.69179 38.5017 5.11652C38.5866 5.93398 39.0927 6.68452 39.9012 7.04759C40.7176 7.44055 41.643 7.3337 42.3349 6.85134C42.2767 7.68426 42.6578 8.52871 43.3989 9.02957C44.13 9.5224 45.0359 9.56288 45.779 9.21384C45.5927 10.0198 45.8313 10.9007 46.479 11.5064C46.6628 11.6832 46.8701 11.8215 47.0881 11.9289L50.3097 8.72496C50.1967 8.49724 50.0481 8.28196 49.8573 8.09223C49.8337 8.06873 49.7749 8.01284 49.7503 7.99039C49.0082 7.31171 47.9567 7.18591 47.0981 7.58834C47.316 6.65206 46.9515 5.63785 46.1034 5.06609L46.0642 5.03912C45.2146 4.46585 44.1411 4.51279 43.3527 5.06658C43.422 4.11579 42.9139 3.17549 41.9985 2.73555L41.8971 2.68911C40.9797 2.27513 39.9333 2.48187 39.2428 3.13005C39.1464 2.20772 38.5123 1.38476 37.5648 1.09064C37.5371 1.08165 37.4623 1.06068 37.4347 1.05269C36.4691 0.792521 35.4694 1.14857 34.8854 1.88463C34.6243 0.957809 33.8159 0.244719 32.7925 0.154833L32.5028 2.53281L32.7845 0.154334C31.7632 0.0324888 30.8237 0.564312 30.3728 1.41423C29.9862 0.557321 29.1195 -0.0279343 28.1042 0.00102884C28.0811 0.00202757 28.0093 0.00552312 27.9857 0.00702119C26.9804 0.0659459 26.1489 0.730098 25.8391 1.62296C25.3109 0.834971 24.3378 0.400521 23.3481 0.604261C23.3431 0.60526 23.2913 0.615746 23.2868 0.616745C22.2866 0.827479 21.5776 1.62546 21.4289 2.57026C20.7722 1.85017 19.7157 1.57652 18.7546 1.96353L19.5922 4.20917L18.7466 1.96653C17.781 2.32707 17.1844 3.23741 17.1835 4.20668C16.4208 3.61243 15.3391 3.51356 14.4594 4.03889L15.6565 6.11675L14.4394 4.05038C13.5551 4.56522 13.1238 5.55446 13.2799 6.50225C12.4444 6.04733 11.3814 6.11126 10.5986 6.74594L10.5273 6.80486C9.7525 7.45707 9.49588 8.4902 9.7997 9.39205C8.91749 9.08144 7.8946 9.29922 7.21974 10.0273C7.1972 10.0522 7.14344 10.1127 7.12183 10.1381C6.4691 10.9052 6.38775 11.9598 6.83213 12.7967C5.88412 12.621 4.88589 13.0264 4.34761 13.8894L4.32251 13.9298C3.7787 14.8017 3.8731 15.8724 4.46913 16.6344C3.49852 16.6044 2.55803 17.1747 2.16839 18.126L4.38075 19.0713L2.15985 18.1449C1.76719 19.0763 2.01122 20.1149 2.69411 20.7816C1.73154 20.9264 0.920102 21.6415 0.711719 22.6477L3.05062 23.2185L0.710214 22.6542C0.467686 23.6469 0.886962 24.6457 1.68635 25.192C0.786536 25.4756 0.100632 26.2731 0.0127602 27.2663C0.0102496 27.2893 0.00573046 27.3602 0.00422408 27.3837C-0.0545247 28.3779 0.504844 29.2723 1.35093 29.6868C0.487269 30.1282 -0.0535204 31.0625 0.0669895 32.0802L2.46665 31.8779L0.0679939 32.0887C0.157372 33.1029 0.871397 33.9134 1.79932 34.1795C1.03258 34.7333 0.635899 35.7116 0.872902 36.6838C0.878424 36.7058 0.896502 36.7742 0.902024 36.7957C1.16715 37.7625 1.99164 38.4336 2.93363 38.552Z" fill="#F7C88C"/>
<path d="M47.8513 47.6179C37.6993 57.7141 21.2401 57.7141 11.0882 47.6179C0.936171 37.5223 0.936171 21.1531 11.0882 11.0574C21.2401 0.961811 37.6993 0.961811 47.8513 11.0574C58.0028 21.1531 58.0028 37.5223 47.8513 47.6179Z" fill="#E7815F"/>
<path d="M47.8513 11.0574C58.0028 21.1531 58.0028 37.5223 47.8513 47.6179C37.6993 57.7141 21.2401 57.7141 11.0882 47.6179" fill="#10185A"/>
<path d="M15.061 13.2L15.8121 13.8258L14.9564 14.8385L18.0539 17.4197L17.2673 18.3506L14.1697 15.7695L13.3141 16.7821L12.563 16.1563L15.061 13.2Z" fill="#FFFFFE"/>
<path d="M20.8731 14.2699C20.4576 14.5082 20.0198 14.6313 19.56 14.6394C19.1043 14.645 18.6742 14.5358 18.2698 14.3119C17.8671 14.0814 17.541 13.7515 17.2914 13.3221C17.0417 12.8927 16.9183 12.4494 16.9211 11.992C16.928 11.5323 17.0479 11.1078 17.2806 10.7187C17.5175 10.3272 17.8438 10.0123 18.2594 9.77402C18.6749 9.53576 19.1106 9.41384 19.5663 9.40825C20.0261 9.40021 20.4541 9.51055 20.8501 9.73926C21.2503 9.96559 21.5753 10.2934 21.8249 10.7228C22.0746 11.1522 22.1992 11.5976 22.1988 12.0592C22.1961 12.5165 22.0783 12.9397 21.8456 13.3288C21.6129 13.718 21.2887 14.0317 20.8731 14.2699ZM20.306 13.2945C20.6586 13.0923 20.872 12.8143 20.9462 12.4605C21.0245 12.1043 20.9523 11.7345 20.7293 11.351C20.5039 10.9633 20.2175 10.7162 19.8701 10.6096C19.5246 10.4965 19.1755 10.541 18.8229 10.7432C18.466 10.9478 18.2472 11.2261 18.1664 11.5781C18.0899 11.9278 18.1654 12.2985 18.3933 12.6904C18.6187 13.078 18.9041 13.3284 19.2498 13.4415C19.5971 13.548 19.9492 13.4991 20.306 13.2945Z" fill="#FFFFFE"/>
<path d="M40.9731 17.6949C40.6647 17.3298 40.4666 16.9231 40.3787 16.4747C40.2941 16.03 40.3276 15.5905 40.4794 15.1561C40.6381 14.7223 40.9086 14.346 41.291 14.0273C41.6736 13.7087 42.0918 13.5109 42.5458 13.4342C43.0029 13.3612 43.4446 13.4047 43.8709 13.5647C44.3003 13.7284 44.6692 13.9928 44.9777 14.3579C45.2861 14.723 45.4827 15.1278 45.5674 15.5725C45.6552 16.0209 45.6201 16.4586 45.462 16.8857C45.3072 17.3163 45.0384 17.6911 44.656 18.0098C44.2735 18.3284 43.8534 18.5277 43.3957 18.6075C42.9417 18.6842 42.5015 18.6425 42.0752 18.4825C41.649 18.3225 41.2816 18.0599 40.9731 17.6949ZM41.842 16.9708C42.1037 17.2806 42.4164 17.441 42.7802 17.4522C43.147 17.4669 43.5012 17.332 43.8428 17.0473C44.1882 16.7596 44.3834 16.4366 44.4288 16.0783C44.4809 15.7207 44.3762 15.387 44.1144 15.0773C43.8496 14.7638 43.5356 14.5982 43.1725 14.5803C42.8125 14.5661 42.458 14.7045 42.109 14.9953C41.7636 15.283 41.5649 15.6057 41.5127 15.9634C41.4674 16.3216 41.5772 16.6574 41.842 16.9708Z" fill="#FFFFFE"/>
<path d="M26.7307 8.94144C26.8029 9.20906 26.8073 9.47114 26.744 9.72776C26.6795 9.98003 26.5375 10.2082 26.318 10.4124C26.0985 10.6165 25.7988 10.7691 25.4189 10.8702L24.7166 11.0571L25.164 12.7152L24.031 13.0167L22.7847 8.39766L24.62 7.90924C24.9911 7.81056 25.3219 7.79068 25.6124 7.84973C25.9029 7.90878 26.1424 8.03308 26.3308 8.22274C26.5193 8.41234 26.6526 8.65191 26.7307 8.94144ZM25.0914 9.99827C25.3078 9.94066 25.4554 9.84731 25.5342 9.71821C25.613 9.58911 25.6275 9.4325 25.5778 9.24823C25.5281 9.06396 25.4366 8.93552 25.3034 8.86284C25.1702 8.79016 24.9953 8.78265 24.7789 8.84019L24.1627 9.00418L24.4752 10.1623L25.0914 9.99827Z" fill="#FFFFFE"/>
<path d="M36.1356 9.17942C36.086 9.45921 35.9757 9.70477 35.8048 9.91603C35.6348 10.1227 35.4033 10.2736 35.1101 10.369C34.817 10.4642 34.4718 10.4771 34.0747 10.4075L33.3403 10.279L33.0325 12.0126L31.8479 11.8052L32.7054 6.97559L34.6244 7.31167C35.0123 7.37954 35.3284 7.5035 35.5727 7.68343C35.8169 7.86335 35.9852 8.08198 36.0776 8.33932C36.1701 8.59667 36.1894 8.87672 36.1356 9.17942ZM34.1507 9.45612C34.377 9.49575 34.555 9.47251 34.6846 9.38647C34.8141 9.30036 34.896 9.16099 34.9302 8.96836C34.9644 8.77573 34.9355 8.61694 34.8433 8.49206C34.7513 8.36717 34.592 8.28488 34.3657 8.24525L33.7214 8.13247L33.5064 9.34328L34.1507 9.45612Z" fill="#FFFFFE"/>
<path d="M38.1345 14.4399L38.179 12.2304L37.9179 12.0807L36.9434 13.7569L35.8542 13.1325L38.4357 8.69208L40.2637 9.74021C40.6162 9.94225 40.88 10.175 41.0552 10.4385C41.2346 10.7045 41.3234 10.9802 41.3215 11.2659C41.3221 11.5474 41.2464 11.8188 41.0944 12.0803C40.9227 12.3755 40.6846 12.5903 40.3799 12.7248C40.0795 12.8618 39.7376 12.8851 39.3542 12.7946L39.3637 15.1447L38.1345 14.4399ZM38.3629 11.3153L39.038 11.7024C39.2376 11.8169 39.4144 11.8536 39.5684 11.8126C39.7268 11.7741 39.8573 11.6662 39.9604 11.4891C40.0584 11.3204 40.0847 11.1584 40.0391 11.003C39.9979 10.85 39.8774 10.7163 39.6779 10.6018L39.0027 10.2147L38.3629 11.3153Z" fill="#FFFFFE"/>
<path d="M29.4694 41.2615L31.1305 44.6087L34.8447 45.145L32.1573 47.7507L32.7915 51.43L29.4694 49.6933L26.1474 51.43L26.7816 47.7507L24.0937 45.145L27.8084 44.6087L29.4694 41.2615Z" fill="#F7C88C"/>
<path d="M37.8324 40.1659L39.6451 41.8587L42.0744 41.3334L41.0153 43.5706L42.2682 45.7064L39.8017 45.3963L38.1467 47.2409L37.6812 44.8125L35.4051 43.8173L37.5839 42.6258L37.8324 40.1659Z" fill="#F7C88C"/>
<path d="M21.1061 40.1659L19.2944 41.8587L16.8646 41.3334L17.9236 43.5706L16.6708 45.7064L19.1372 45.3963L20.7923 47.2409L21.2582 44.8125L23.5333 43.8173L21.3546 42.6258L21.1061 40.1659Z" fill="#F7C88C"/>
<path d="M25.2367 23.0877C24.7992 23.0877 24.397 22.9868 24.0302 22.7849C23.6678 22.583 23.3783 22.3021 23.1617 21.9422C22.9496 21.578 22.8435 21.1698 22.8435 20.7177C22.8435 20.2656 22.9496 19.8597 23.1617 19.4998C23.3783 19.1399 23.6678 18.8591 24.0302 18.6571C24.397 18.4552 24.7992 18.3543 25.2367 18.3543C25.6742 18.3543 26.0742 18.4552 26.4366 18.6571C26.8034 18.8591 27.0907 19.1399 27.2984 19.4998C27.5105 19.8597 27.6166 20.2656 27.6166 20.7177C27.6166 21.1698 27.5105 21.578 27.2984 21.9422C27.0862 22.3021 26.799 22.583 26.4366 22.7849C26.0742 22.9868 25.6742 23.0877 25.2367 23.0877ZM25.2367 22.0607C25.6079 22.0607 25.904 21.9378 26.125 21.6921C26.3504 21.4463 26.4631 21.1215 26.4631 20.7177C26.4631 20.3096 26.3504 19.9848 26.125 19.7434C25.904 19.4976 25.6079 19.3747 25.2367 19.3747C24.861 19.3747 24.5605 19.4954 24.3351 19.7368C24.1142 19.9782 24.0037 20.3051 24.0037 20.7177C24.0037 21.1259 24.1142 21.4529 24.3351 21.6986C24.5605 21.9401 24.861 22.0607 25.2367 22.0607ZM30.9453 23.0416L29.3808 21.0008V23.0416H28.2472V18.4201H29.3808V20.4478L30.932 18.4201H32.2645L30.4614 20.6848L32.3308 23.0416H30.9453ZM36.2173 18.4201V19.3221H34.9843V23.0416H33.8507V19.3221H32.6177V18.4201H36.2173Z" fill="#F7C88C"/>
<path d="M13.3003 35.0628C13.6008 34.8258 13.7379 34.7161 13.7113 34.7336C14.5776 34.0226 15.2581 33.4389 15.7531 32.9825C16.257 32.5261 16.6812 32.0476 17.0259 31.5473C17.3707 31.047 17.543 30.5598 17.543 30.0858C17.543 29.7259 17.459 29.4451 17.2911 29.2431C17.1232 29.0412 16.8713 28.9403 16.5354 28.9403C16.1995 28.9403 15.9343 29.0676 15.7399 29.3221C15.5543 29.5679 15.4614 29.9191 15.4614 30.3755H13.2738C13.2915 29.6294 13.4506 29.0061 13.7511 28.5058C14.0605 28.0055 14.4626 27.6368 14.9576 27.3998C15.4614 27.1628 16.0183 27.0443 16.6282 27.0443C17.68 27.0443 18.4711 27.3121 19.0014 27.8475C19.5406 28.3829 19.8102 29.0807 19.8102 29.941C19.8102 30.8802 19.4876 31.7536 18.8423 32.5611C18.1971 33.3599 17.3751 34.1411 16.3763 34.9048H19.9561V36.735H13.3003V35.0628ZM20.9543 31.9291C20.9543 30.4194 21.246 29.23 21.8293 28.361C22.4215 27.492 23.3718 27.0575 24.6799 27.0575C25.988 27.0575 26.9338 27.492 27.5172 28.361C28.1094 29.23 28.4055 30.4194 28.4055 31.9291C28.4055 33.4565 28.1094 34.6546 27.5172 35.5236C26.9338 36.3926 25.988 36.8271 24.6799 36.8271C23.3718 36.8271 22.4215 36.3926 21.8293 35.5236C21.246 34.6546 20.9543 33.4565 20.9543 31.9291ZM26.1781 31.9291C26.1781 31.0426 26.0809 30.3623 25.8864 29.8883C25.692 29.4056 25.2898 29.1641 24.6799 29.1641C24.07 29.1641 23.6678 29.4056 23.4734 29.8883C23.2789 30.3623 23.1817 31.0426 23.1817 31.9291C23.1817 32.5261 23.217 33.022 23.2878 33.417C23.3585 33.8032 23.4999 34.1192 23.712 34.365C23.933 34.602 24.2556 34.7205 24.6799 34.7205C25.1042 34.7205 25.4224 34.602 25.6345 34.365C25.8555 34.1192 26.0013 33.8032 26.072 33.417C26.1428 33.022 26.1781 32.5261 26.1781 31.9291ZM29.5238 35.0628C29.8243 34.8258 29.9613 34.7161 29.9348 34.7336C30.801 34.0226 31.4816 33.4389 31.9766 32.9825C32.4804 32.5261 32.9047 32.0476 33.2494 31.5473C33.5941 31.047 33.7665 30.5598 33.7665 30.0858C33.7665 29.7259 33.6825 29.4451 33.5146 29.2431C33.3466 29.0412 33.0947 28.9403 32.7589 28.9403C32.423 28.9403 32.1578 29.0676 31.9634 29.3221C31.7777 29.5679 31.6849 29.9191 31.6849 30.3755H29.4973C29.5149 29.6294 29.674 29.0061 29.9746 28.5058C30.2839 28.0055 30.6861 27.6368 31.1811 27.3998C31.6849 27.1628 32.2418 27.0443 32.8517 27.0443C33.9035 27.0443 34.6946 27.3121 35.2249 27.8475C35.7641 28.3829 36.0337 29.0807 36.0337 29.941C36.0337 30.8802 35.711 31.7536 35.0658 32.5611C34.4205 33.3599 33.5985 34.1411 32.5998 34.9048H36.1795V36.735H29.5238V35.0628ZM37.2307 35.155V33.338L41.4204 27.3866H43.9527V33.2063H45.0399V35.155H43.9527V36.8666H41.6856V35.155H37.2307ZM41.8447 29.862L39.6172 33.2063H41.8447V29.862Z" fill="#FFFFFE"/>
</g>
<defs>
<clipPath id="clip0_6_114">
<rect width="59" height="79" fill="white"/>
</clipPath>
</defs>
</svg>
