<svg width="194" height="71" viewBox="0 0 194 71" fill="none" xmlns="http://www.w3.org/2000/svg">
<g clip-path="url(#clip0_1_46)" filter="url(#filter0_d_1_46)">
<path fill-rule="evenodd" clip-rule="evenodd" d="M58.861 14.7893H170.792C181.401 14.7893 190 23.4198 190 34.0645C190 44.7092 181.4 53.3396 170.792 53.3396H43.123C45.974 50.3884 48.4547 47.1138 50.5554 43.5694C55.3006 35.5615 58.0973 26.1727 58.796 16.039L58.8815 14.7965L58.8619 14.7875H58.861V14.7893Z" fill="#2095E4"/>
<path fill-rule="evenodd" clip-rule="evenodd" d="M32.5463 4.16431L5.85547 15.922C7.19597 35.3686 16.4585 51.9498 32.5463 60.9643C48.6341 51.9489 57.8966 35.3686 59.2371 15.922L32.5463 4.16431Z" fill="#FEFEFE"/>
<path fill-rule="evenodd" clip-rule="evenodd" d="M22.8833 27.1875L29.6517 33.9814L44.9847 18.5936L49.7076 23.3349C43.0229 30.0431 36.3195 36.7362 29.6534 43.464L17.8203 31.5893L22.5432 26.8498L22.8806 27.1884H22.8833V27.1875Z" fill="#2095E4"/>
<path d="M65.957 27.0936V21.3492H75.9289V47.722H69.521V27.0936H65.957ZM80.1409 34.1743C80.1409 30.0315 80.9385 26.7676 82.5344 24.3835C84.1304 21.9995 86.7037 20.807 90.257 20.807C93.8103 20.807 96.3828 21.9995 97.9796 24.3835C99.5756 26.7676 100.373 30.0315 100.373 34.1743C100.373 38.3171 99.5756 41.6525 97.9796 44.0365C96.3837 46.4206 93.8103 47.613 90.257 47.613C86.7037 47.613 84.1313 46.4206 82.5344 44.0365C80.9385 41.6525 80.1409 38.3654 80.1409 34.1743ZM94.3257 34.1743C94.3257 31.742 94.0622 29.8689 93.5335 28.5558C93.0048 27.2428 91.9135 26.5863 90.2579 26.5863C88.6023 26.5863 87.5093 27.2419 86.9823 28.5558C86.4536 29.8689 86.1901 31.742 86.1901 34.1743C86.1901 35.8116 86.2862 37.1675 86.4785 38.2385C86.6708 39.3104 87.0606 40.1769 87.649 40.8387C88.2374 41.5006 89.1061 41.832 90.2588 41.832C91.4115 41.832 92.2811 41.5006 92.8686 40.8387C93.457 40.1769 93.8468 39.3095 94.0391 38.2385C94.2314 37.1666 94.3275 35.8116 94.3275 34.1743H94.3257Z" fill="#FEFEFE"/>
<path d="M120.028 21.0331L114.525 31.7126V36.9836H110.653V31.7126L105.15 21.0331H109.543L112.623 27.7136L115.68 21.0331H120.027H120.028ZM125.462 24.146V27.3724H130.648V30.3719H125.462V33.8707H131.327V36.9836H121.59V21.0322H131.327V24.1451H125.462V24.146ZM143.736 34.1663H137.803L136.853 36.9836H132.8L138.55 21.0322H143.034L148.786 36.9836H144.688L143.738 34.1663H143.737H143.736ZM142.74 31.1668L140.769 25.3269L138.822 31.1668H142.74ZM158.634 36.9827L155.329 30.9614H154.4V36.9827H150.528V21.0313H157.027C158.28 21.0313 159.348 21.2519 160.231 21.6905C161.114 22.13 161.775 22.732 162.212 23.4975C162.65 24.263 162.869 25.1152 162.869 26.054C162.869 27.1133 162.571 28.0611 161.974 28.8944C161.378 29.7269 160.498 30.3183 159.336 30.6675L163.004 36.9845H158.634V36.9827ZM154.4 28.212H156.801C157.51 28.212 158.042 28.0369 158.397 27.6895C158.751 27.3411 158.929 26.8489 158.929 26.2129C158.929 25.577 158.753 25.1295 158.397 24.782C158.042 24.4336 157.509 24.2594 156.801 24.2594H154.4V28.2129V28.212ZM171.043 37.1426C169.88 37.1426 168.839 36.9532 167.918 36.5745C166.997 36.1949 166.262 35.6348 165.71 34.8925C165.159 34.1511 164.868 33.257 164.838 32.211H168.96C169.021 32.8015 169.223 33.2525 169.571 33.5625C169.918 33.8725 170.371 34.0279 170.93 34.0279C171.488 34.0279 171.956 33.8948 172.288 33.6304C172.621 33.3642 172.786 32.998 172.786 32.5272C172.786 32.1333 172.654 31.8073 172.39 31.55C172.125 31.2937 171.802 31.0811 171.416 30.9141C171.032 30.747 170.484 30.5585 169.774 30.346C168.748 30.028 167.91 29.71 167.26 29.392C166.611 29.074 166.053 28.605 165.585 27.9825C165.118 27.3617 164.884 26.5515 164.884 25.5511C164.884 24.0665 165.419 22.9035 166.492 22.063C167.564 21.2224 168.961 20.8026 170.681 20.8026C172.402 20.8026 173.844 21.2233 174.915 22.063C175.987 22.9035 176.561 24.0745 176.637 25.5734H172.448C172.418 25.0589 172.228 24.6534 171.882 24.3568C171.535 24.0611 171.09 23.9138 170.545 23.9138C170.078 23.9138 169.699 24.0388 169.412 24.2889C169.124 24.539 168.982 24.899 168.982 25.3679C168.982 25.8825 169.223 26.2844 169.706 26.572C170.19 26.8605 170.945 27.1705 171.971 27.5037C172.997 27.852 173.831 28.1852 174.473 28.5032C175.115 28.8212 175.669 29.283 176.137 29.8904C176.604 30.4969 176.838 31.2758 176.838 32.2298C176.838 33.1838 176.608 33.9645 176.147 34.7067C175.687 35.4499 175.019 36.0403 174.143 36.4798C173.267 36.9193 172.234 37.139 171.041 37.139L171.043 37.1426Z" fill="#FEFEFE"/>
<path fill-rule="evenodd" clip-rule="evenodd" d="M71.4935 0L72.9194 3.53275L76.7068 3.80072L73.7989 6.25266L74.7157 9.95066L71.4917 7.93462L68.2704 9.95066L69.1863 6.25177L66.2792 3.80072L70.0684 3.53097L71.4935 0Z" fill="#2095E4"/>
<path fill-rule="evenodd" clip-rule="evenodd" d="M96.4546 0.0732809C96.9237 1.23449 97.3927 2.3957 97.8609 3.5578C99.1053 3.64534 100.351 3.73377 101.596 3.8222C100.64 4.6279 99.6839 5.43449 98.7279 6.24108C99.0297 7.45588 99.3305 8.67247 99.6323 9.88817C98.5721 9.22449 97.512 8.5626 96.4528 7.89893C95.3945 8.5626 94.3352 9.22449 93.2769 9.88817C93.5768 8.67158 93.8786 7.45588 94.1795 6.2393C93.2235 5.4336 92.2684 4.6279 91.3124 3.8213C92.5577 3.73287 93.8038 3.64444 95.0491 3.55512C95.5164 2.39391 95.9855 1.2336 96.4546 0.0723877V0.0732809Z" fill="#2095E4"/>
<path fill-rule="evenodd" clip-rule="evenodd" d="M121.416 0.147461C121.879 1.2917 122.341 2.43772 122.804 3.58196C124.031 3.66949 125.258 3.75703 126.488 3.84368C125.545 4.63866 124.603 5.43364 123.66 6.22772C123.957 7.42556 124.254 8.62517 124.551 9.8239C123.507 9.16915 122.461 8.5162 121.417 7.86235C120.373 8.5153 119.328 9.17005 118.284 9.8239C118.58 8.62428 118.877 7.42555 119.174 6.22594C118.232 5.43096 117.29 4.63687 116.348 3.84278C117.576 3.75524 118.804 3.66771 120.033 3.58106C120.495 2.43683 120.957 1.2917 121.419 0.147461H121.418H121.416Z" fill="#2095E4"/>
<path fill-rule="evenodd" clip-rule="evenodd" d="M146.378 0.22062C146.834 1.34967 147.289 2.47872 147.746 3.60688C148.956 3.69263 150.166 3.77928 151.377 3.86324C150.447 4.64661 149.518 5.42998 148.589 6.21513C148.883 7.39778 149.175 8.57864 149.468 9.76039C148.438 9.11547 147.409 8.47145 146.378 7.82743C145.348 8.47145 144.319 9.11637 143.29 9.76039C143.582 8.57774 143.875 7.39599 144.167 6.21335C143.238 5.42998 142.309 4.64661 141.381 3.86324C142.591 3.77749 143.802 3.69085 145.014 3.60509C145.469 2.47604 145.925 1.34878 146.381 0.219727H146.378V0.22062Z" fill="#2095E4"/>
<path fill-rule="evenodd" clip-rule="evenodd" d="M171.341 0.294739L172.688 3.63187L176.267 3.88555L173.52 6.2035L174.387 9.69784L171.339 7.79257L168.296 9.69784L169.161 6.20171L166.414 3.88555L169.995 3.63009L171.341 0.294739Z" fill="#2095E4"/>
<path d="M32.5458 6.10526L7.71977 17.0421C8.51375 26.1397 11.1075 34.5522 15.3783 41.7606C19.5386 48.7841 25.3021 54.667 32.5449 58.9197C39.7878 54.6661 45.5503 48.7832 49.7116 41.7606C53.9823 34.5531 56.5761 26.1397 57.3701 17.0421L32.5458 6.10526ZM5.14735 14.2927L32.5458 2.22504C42.0647 6.40807 51.5755 10.6081 61.0916 14.7982L61.0044 16.0407C60.3066 26.1745 57.5098 35.5624 52.7638 43.5712C48.1254 51.4004 41.6249 57.9112 33.4057 62.5176L32.5458 63L31.6851 62.5176C23.464 57.9112 16.9653 51.4004 12.327 43.5712C7.58091 35.5633 4.78419 26.1745 4.08545 16.0407L4 14.7982L5.14557 14.2927H5.14646H5.14735Z" fill="#2095E4"/>
<path d="M112.99 42.1474L111.346 47.7131H110.316L109.151 43.5006L107.915 47.7131L106.894 47.7212L105.322 42.1474H106.287L107.436 46.6797L108.68 42.1474H109.701L110.859 46.6564L112.016 42.1474H112.989H112.99ZM121.016 46.576H118.694L118.295 47.714H117.346L119.333 42.1402H120.387L122.375 47.714H121.417L121.018 46.576H121.017H121.016ZM120.761 45.8311L119.859 43.2434L118.949 45.8311H120.761ZM130.047 47.7131L128.769 45.4863H128.074V47.7131H127.164V42.1474H129.079C129.505 42.1474 129.865 42.2215 130.161 42.3716C130.456 42.5216 130.677 42.7208 130.824 42.9727C130.971 43.2246 131.044 43.5033 131.044 43.8133C131.044 44.1759 130.939 44.5055 130.728 44.803C130.518 45.0986 130.194 45.3005 129.758 45.4077L131.131 47.714H130.045L130.047 47.7131ZM128.075 44.7583H129.08C129.42 44.7583 129.677 44.6726 129.85 44.502C130.023 44.3313 130.11 44.1018 130.11 43.8133C130.11 43.5248 130.025 43.2997 129.854 43.1371C129.684 42.9745 129.425 42.8932 129.08 42.8932H128.075V44.7583ZM139.023 47.7131L137.745 45.4863H137.05V47.7131H136.14V42.1474H138.055C138.481 42.1474 138.841 42.2215 139.137 42.3716C139.432 42.5216 139.653 42.7208 139.8 42.9727C139.946 43.2246 140.019 43.5033 140.019 43.8133C140.019 44.1759 139.914 44.5055 139.703 44.803C139.493 45.0986 139.169 45.3005 138.734 45.4077L140.108 47.714H139.022L139.023 47.7131ZM137.051 44.7583H138.056C138.396 44.7583 138.653 44.6726 138.826 44.502C138.998 44.3313 139.086 44.1018 139.086 43.8133C139.086 43.5248 139.001 43.2997 138.83 43.1371C138.66 42.9745 138.401 42.8932 138.056 42.8932H137.051V44.7583ZM148.461 46.576H146.139L145.74 47.714H144.79L146.778 42.1402H147.832L149.82 47.714H148.862L148.463 46.576H148.462H148.461ZM148.205 45.8311L147.303 43.2434L146.393 45.8311H148.205ZM159.167 47.7131H158.257L155.52 43.556V47.7131H154.61V42.1393H155.52L158.257 46.2875V42.1393H159.167V47.7131ZM167.879 42.1474V42.8914H166.402V47.7122H165.493V42.8914H164.008V42.1474H167.879ZM176.839 42.1474L175.003 45.6953V47.7131H174.094V45.6953L172.25 42.1474H173.263L174.548 44.878L175.832 42.1474H176.838H176.839Z" fill="#FEFEFE"/>
</g>
<defs>
<filter id="filter0_d_1_46" x="0" y="0" width="194" height="71" filterUnits="userSpaceOnUse" color-interpolation-filters="sRGB">
<feFlood flood-opacity="0" result="BackgroundImageFix"/>
<feColorMatrix in="SourceAlpha" type="matrix" values="0 0 0 0 0 0 0 0 0 0 0 0 0 0 0 0 0 0 127 0" result="hardAlpha"/>
<feOffset dy="4"/>
<feGaussianBlur stdDeviation="2"/>
<feComposite in2="hardAlpha" operator="out"/>
<feColorMatrix type="matrix" values="0 0 0 0 0 0 0 0 0 0 0 0 0 0 0 0 0 0 0.3 0"/>
<feBlend mode="normal" in2="BackgroundImageFix" result="effect1_dropShadow_1_46"/>
<feBlend mode="normal" in="SourceGraphic" in2="effect1_dropShadow_1_46" result="shape"/>
</filter>
<clipPath id="clip0_1_46">
<rect width="186" height="63" fill="white" transform="translate(4)"/>
</clipPath>
</defs>
</svg>
