<svg xmlns="http://www.w3.org/2000/svg" xmlns:xlink="http://www.w3.org/1999/xlink" width="390" height="60" viewBox="0 0 390 60">
  <defs>
    <clipPath id="clip-path">
      <rect id="Rectangle_6997" data-name="Rectangle 6997" width="49" height="49" transform="translate(0.404)" fill="#fff"/>
    </clipPath>
  </defs>
  <g id="Group_25660" data-name="Group 25660" transform="translate(13288 23048)">
    <rect id="Rectangle_6996" data-name="Rectangle 6996" width="390" height="60" transform="translate(-13288 -23048)" fill="none"/>
    <g id="Group_25659" data-name="Group 25659" transform="translate(-267.251 50.944)">
      <g id="GMK_Dakonderhoud" data-name="GMK Dakonderhoud" transform="translate(-13017 -23082)">
        <path id="Path_10816" data-name="Path 10816" d="M23.32,21.937a22.062,22.062,0,0,1-6.4,1.486,14.661,14.661,0,0,1-5.312-.5A11,11,0,0,1,7.549,20.7a9.975,9.975,0,0,1-2.573-3.53,11.035,11.035,0,0,1-.891-4.458,11.483,11.483,0,0,1,.825-4.4,9.82,9.82,0,0,1,2.409-3.53,11.566,11.566,0,0,1,3.893-2.322,14.508,14.508,0,0,1,5.18-.8,23.3,23.3,0,0,1,6.368.991V7.881A18.047,18.047,0,0,0,17.678,6.7a10.089,10.089,0,0,0-4.058.464A5.594,5.594,0,0,0,10.915,9.15a5.584,5.584,0,0,0-.957,3.344,6.8,6.8,0,0,0,.693,3.127,5.407,5.407,0,0,0,2.013,2.136,5.585,5.585,0,0,0,2.936.774q.561,0,1.122-.031a9.177,9.177,0,0,0,1.089-.186V15.033h-3.7V10.42H23.32V21.937ZM27.5,23.052V2h8.248q.957,3.158,1.881,6.409.957,3.22,1.881,6.378.924-3.158,1.848-6.378Q42.317,5.156,43.241,2H51.39q.033,5.2.066,10.527t.066,10.527H45.946V8.779q-.99,3.53-2.013,7.152-1.023,3.592-2.013,7.121H36.906q-.99-3.468-1.98-7-.99-3.561-1.98-7.028V23.052H27.5Zm28.322,0V2H61.6v8.143q1.683-2.012,3.365-4.056Q66.679,4.011,68.362,2h6.533q-2.079,2.477-4.223,5.016Q68.56,9.522,66.481,12q2.178,2.725,4.388,5.511,2.244,2.787,4.421,5.542H68.4q-1.683-2.2-3.4-4.4-1.716-2.229-3.4-4.4v8.793H55.825Zm28.193,0V2H92a12.154,12.154,0,0,1,4.488.8A10.668,10.668,0,0,1,100.052,5a9.9,9.9,0,0,1,2.343,3.344,9.924,9.924,0,0,1,.858,4.149,10.427,10.427,0,0,1-3.2,7.555,11.087,11.087,0,0,1-3.563,2.229A12.587,12.587,0,0,1,92,23.052H84.017ZM92,6.89H89.791V18.16H92a5.415,5.415,0,0,0,2.871-.743A5.032,5.032,0,0,0,96.753,15.4a6.347,6.347,0,0,0,.66-2.91,6.158,6.158,0,0,0-.66-2.879,4.823,4.823,0,0,0-1.881-1.982A5.415,5.415,0,0,0,92,6.89Zm25.461,16.162v-.929a5.961,5.961,0,0,1-1.881.991,6.425,6.425,0,0,1-2.211.372,8.076,8.076,0,0,1-5.807-2.322,8.672,8.672,0,0,1-1.782-2.694,9.084,9.084,0,0,1-.627-3.437,9.171,9.171,0,0,1,.627-3.468,7.942,7.942,0,0,1,1.782-2.632,8.433,8.433,0,0,1,5.774-2.322,6.707,6.707,0,0,1,2.244.372,6.345,6.345,0,0,1,1.881.96v-.9h5.444V23.052h-5.444ZM114.1,18.965a3.222,3.222,0,0,0,2.54-1.084,4.144,4.144,0,0,0,.957-2.848,4.027,4.027,0,0,0-.957-2.817,3.222,3.222,0,0,0-2.54-1.084,3.308,3.308,0,0,0-2.573,1.053,4.168,4.168,0,0,0-.924,2.848,4.289,4.289,0,0,0,.924,2.879A3.308,3.308,0,0,0,114.1,18.965Zm12.608,4.087V.45h5.444V12.773l2.376-2.848q1.188-1.455,2.376-2.879h6.368q-1.551,1.827-3.167,3.684-1.584,1.858-3.134,3.684,1.649,2.136,3.3,4.335,1.683,2.167,3.3,4.3H137.1q-1.222-1.641-2.475-3.313-1.254-1.7-2.475-3.344v6.657h-5.444Zm26.122.5a10.06,10.06,0,0,1-3.563-.619,8.926,8.926,0,0,1-2.87-1.8,8.672,8.672,0,0,1-1.914-2.725,8.512,8.512,0,0,1-.66-3.375,8.512,8.512,0,0,1,.66-3.375,8.315,8.315,0,0,1,1.914-2.694,8.512,8.512,0,0,1,2.87-1.765,9.633,9.633,0,0,1,3.563-.65,9.464,9.464,0,0,1,3.563.65,8.512,8.512,0,0,1,2.87,1.765,7.911,7.911,0,0,1,1.881,2.694,8.166,8.166,0,0,1,.693,3.375,8.467,8.467,0,0,1-2.573,6.1,8.926,8.926,0,0,1-2.87,1.8A9.883,9.883,0,0,1,152.828,23.547Zm0-4.613A3.261,3.261,0,0,0,155.4,17.85a4.086,4.086,0,0,0,.99-2.817,3.9,3.9,0,0,0-.99-2.787,3.261,3.261,0,0,0-2.574-1.084,3.363,3.363,0,0,0-2.606,1.084,3.982,3.982,0,0,0-.957,2.787,4.171,4.171,0,0,0,.957,2.817A3.363,3.363,0,0,0,152.828,18.934Zm11.7,4.118V7.045h5.444v.8a7.081,7.081,0,0,1,1.98-.9,8.254,8.254,0,0,1,2.409-.341,6.57,6.57,0,0,1,3.3.8A5.5,5.5,0,0,1,179.9,9.738a7.292,7.292,0,0,1,.825,3.592v9.722h-5.444V14.011a2.968,2.968,0,0,0-.627-1.982,2.259,2.259,0,0,0-1.914-.774,2.8,2.8,0,0,0-2.046.712,2.736,2.736,0,0,0-.726,2.043v9.041h-5.444Zm30.94,0v-.929a5.961,5.961,0,0,1-1.881.991,6.425,6.425,0,0,1-2.211.372,8.144,8.144,0,0,1-3.167-.619,8.457,8.457,0,0,1-2.639-1.734,8.672,8.672,0,0,1-1.782-2.694,9,9,0,0,1-.627-3.406,9.084,9.084,0,0,1,.627-3.437,8.3,8.3,0,0,1,1.782-2.663,8.433,8.433,0,0,1,5.774-2.322,6.707,6.707,0,0,1,2.244.372,6.345,6.345,0,0,1,1.881.96V.45h5.444v22.6h-5.444ZM192.1,18.965a3.221,3.221,0,0,0,2.54-1.084,4.144,4.144,0,0,0,.957-2.848,4.027,4.027,0,0,0-.957-2.817,3.221,3.221,0,0,0-2.54-1.084,3.308,3.308,0,0,0-2.573,1.053,4.168,4.168,0,0,0-.924,2.848,4.289,4.289,0,0,0,.924,2.879A3.308,3.308,0,0,0,192.1,18.965Zm27.286,3.344a16.654,16.654,0,0,1-4.52,1.115,13.189,13.189,0,0,1-4.256-.248,9.724,9.724,0,0,1-3.53-1.517A7.783,7.783,0,0,1,204.64,18.9a8.371,8.371,0,0,1-.858-3.87,8.68,8.68,0,0,1,.627-3.344A8.133,8.133,0,0,1,206.256,9a8,8,0,0,1,2.8-1.8,9.379,9.379,0,0,1,3.53-.65,8.675,8.675,0,0,1,3.1.526,7.4,7.4,0,0,1,4.058,3.715,8.577,8.577,0,0,1,.792,2.848,10.514,10.514,0,0,1-.2,3.282H209.457a3.525,3.525,0,0,0,2.079,1.672,8.556,8.556,0,0,0,3.5.31,18.317,18.317,0,0,0,4.355-.991v4.4Zm-6.929-11.177a3.4,3.4,0,0,0-1.782.5,3.168,3.168,0,0,0-1.221,1.517h5.972a2.828,2.828,0,0,0-1.188-1.517A3.183,3.183,0,0,0,212.459,11.132Zm10.967,11.92V7.045h5.444v.867a7.67,7.67,0,0,1,2.31-1.022,7.8,7.8,0,0,1,2.8-.186V11.72a6.01,6.01,0,0,0-3.86.433A2.62,2.62,0,0,0,228.87,14.6v8.452h-5.444Zm13.181,0V.45h5.444v7.4a7.081,7.081,0,0,1,1.98-.9,8.254,8.254,0,0,1,2.409-.341,6.57,6.57,0,0,1,3.3.8,5.5,5.5,0,0,1,2.244,2.322,7.292,7.292,0,0,1,.825,3.592v9.722h-5.444V14.011a2.968,2.968,0,0,0-.627-1.982,2.259,2.259,0,0,0-1.914-.774,2.8,2.8,0,0,0-2.046.712,2.736,2.736,0,0,0-.726,2.043v9.041h-5.444Zm27.67.5a10.053,10.053,0,0,1-3.563-.619,8.926,8.926,0,0,1-2.87-1.8,8.656,8.656,0,0,1-1.914-2.725,8.511,8.511,0,0,1-.66-3.375,8.511,8.511,0,0,1,.66-3.375,8.3,8.3,0,0,1,1.914-2.694,8.511,8.511,0,0,1,2.87-1.765,9.626,9.626,0,0,1,3.563-.65,9.471,9.471,0,0,1,3.563.65,8.53,8.53,0,0,1,2.87,1.765,7.912,7.912,0,0,1,1.881,2.694,8.166,8.166,0,0,1,.693,3.375,8.467,8.467,0,0,1-2.574,6.1,8.946,8.946,0,0,1-2.87,1.8A9.89,9.89,0,0,1,264.277,23.547Zm0-4.613a3.261,3.261,0,0,0,2.574-1.084,4.086,4.086,0,0,0,.99-2.817,3.9,3.9,0,0,0-.99-2.787,3.261,3.261,0,0,0-2.574-1.084,3.361,3.361,0,0,0-2.606,1.084,3.982,3.982,0,0,0-.957,2.787,4.171,4.171,0,0,0,.957,2.817A3.361,3.361,0,0,0,264.277,18.934ZM291.913,7.045V23.052h-5.444v-.8a7.01,7.01,0,0,1-2.013.9,7.922,7.922,0,0,1-2.376.341,6.757,6.757,0,0,1-3.332-.8,5.769,5.769,0,0,1-2.244-2.322,7.664,7.664,0,0,1-.792-3.592V7.045h5.444v9.041a3.215,3.215,0,0,0,.594,2.012,2.406,2.406,0,0,0,1.947.743,2.8,2.8,0,0,0,2.046-.712,2.736,2.736,0,0,0,.726-2.043V7.045h5.444Zm15,16.007v-.929a5.96,5.96,0,0,1-1.881.991,6.425,6.425,0,0,1-2.211.372,8.144,8.144,0,0,1-3.167-.619,8.457,8.457,0,0,1-2.639-1.734,8.671,8.671,0,0,1-1.782-2.694,9,9,0,0,1-.627-3.406,9.084,9.084,0,0,1,.627-3.437,8.3,8.3,0,0,1,1.782-2.663,8.433,8.433,0,0,1,5.774-2.322,6.711,6.711,0,0,1,2.244.372,6.345,6.345,0,0,1,1.881.96V.45h5.444v22.6h-5.444Zm-3.365-4.087a3.223,3.223,0,0,0,2.54-1.084,4.144,4.144,0,0,0,.957-2.848,4.027,4.027,0,0,0-.957-2.817,3.223,3.223,0,0,0-2.54-1.084,3.307,3.307,0,0,0-2.573,1.053,4.168,4.168,0,0,0-.924,2.848,4.289,4.289,0,0,0,.924,2.879A3.307,3.307,0,0,0,303.552,18.965Z" transform="translate(-4.085 -0.45)" fill="#11162e"/>
        <path id="Path_10817" data-name="Path 10817" d="M23.32,21.937a22.062,22.062,0,0,1-6.4,1.486,14.661,14.661,0,0,1-5.312-.5A11,11,0,0,1,7.549,20.7a9.975,9.975,0,0,1-2.573-3.53,11.035,11.035,0,0,1-.891-4.458,11.483,11.483,0,0,1,.825-4.4,9.82,9.82,0,0,1,2.409-3.53,11.566,11.566,0,0,1,3.893-2.322,14.508,14.508,0,0,1,5.18-.8,23.3,23.3,0,0,1,6.368.991V7.881A18.047,18.047,0,0,0,17.678,6.7a10.089,10.089,0,0,0-4.058.464A5.594,5.594,0,0,0,10.915,9.15a5.584,5.584,0,0,0-.957,3.344,6.8,6.8,0,0,0,.693,3.127,5.407,5.407,0,0,0,2.013,2.136,5.585,5.585,0,0,0,2.936.774q.561,0,1.122-.031a9.177,9.177,0,0,0,1.089-.186V15.033h-3.7V10.42H23.32V21.937ZM27.5,23.052V2h8.248q.957,3.158,1.881,6.409.957,3.22,1.881,6.378.924-3.158,1.848-6.378Q42.317,5.156,43.241,2H51.39q.033,5.2.066,10.527t.066,10.527H45.946V8.779q-.99,3.53-2.013,7.152-1.023,3.592-2.013,7.121H36.906q-.99-3.468-1.98-7-.99-3.561-1.98-7.028V23.052H27.5Zm28.322,0V2H61.6v8.143q1.683-2.012,3.365-4.056Q66.679,4.011,68.362,2h6.533q-2.079,2.477-4.223,5.016Q68.56,9.522,66.481,12q2.178,2.725,4.388,5.511,2.244,2.787,4.421,5.542H68.4q-1.683-2.2-3.4-4.4-1.716-2.229-3.4-4.4v8.793H55.825Zm28.193,0V2H92a12.154,12.154,0,0,1,4.488.8A10.668,10.668,0,0,1,100.052,5a9.9,9.9,0,0,1,2.343,3.344,9.924,9.924,0,0,1,.858,4.149,10.427,10.427,0,0,1-3.2,7.555,11.087,11.087,0,0,1-3.563,2.229A12.587,12.587,0,0,1,92,23.052H84.017ZM92,6.89H89.791V18.16H92a5.415,5.415,0,0,0,2.871-.743A5.032,5.032,0,0,0,96.753,15.4a6.347,6.347,0,0,0,.66-2.91,6.158,6.158,0,0,0-.66-2.879,4.823,4.823,0,0,0-1.881-1.982A5.415,5.415,0,0,0,92,6.89Zm25.461,16.162v-.929a5.961,5.961,0,0,1-1.881.991,6.425,6.425,0,0,1-2.211.372,8.076,8.076,0,0,1-5.807-2.322,8.672,8.672,0,0,1-1.782-2.694,9.084,9.084,0,0,1-.627-3.437,9.171,9.171,0,0,1,.627-3.468,7.942,7.942,0,0,1,1.782-2.632,8.433,8.433,0,0,1,5.774-2.322,6.707,6.707,0,0,1,2.244.372,6.345,6.345,0,0,1,1.881.96v-.9h5.444V23.052h-5.444ZM114.1,18.965a3.222,3.222,0,0,0,2.54-1.084,4.144,4.144,0,0,0,.957-2.848,4.027,4.027,0,0,0-.957-2.817,3.222,3.222,0,0,0-2.54-1.084,3.308,3.308,0,0,0-2.573,1.053,4.168,4.168,0,0,0-.924,2.848,4.289,4.289,0,0,0,.924,2.879A3.308,3.308,0,0,0,114.1,18.965Zm12.608,4.087V.45h5.444V12.773l2.376-2.848q1.188-1.455,2.376-2.879h6.368q-1.551,1.827-3.167,3.684-1.584,1.858-3.134,3.684,1.649,2.136,3.3,4.335,1.683,2.167,3.3,4.3H137.1q-1.222-1.641-2.475-3.313-1.254-1.7-2.475-3.344v6.657h-5.444Zm26.122.5a10.06,10.06,0,0,1-3.563-.619,8.926,8.926,0,0,1-2.87-1.8,8.672,8.672,0,0,1-1.914-2.725,8.512,8.512,0,0,1-.66-3.375,8.512,8.512,0,0,1,.66-3.375,8.315,8.315,0,0,1,1.914-2.694,8.512,8.512,0,0,1,2.87-1.765,9.633,9.633,0,0,1,3.563-.65,9.464,9.464,0,0,1,3.563.65,8.512,8.512,0,0,1,2.87,1.765,7.911,7.911,0,0,1,1.881,2.694,8.166,8.166,0,0,1,.693,3.375,8.467,8.467,0,0,1-2.573,6.1,8.926,8.926,0,0,1-2.87,1.8A9.883,9.883,0,0,1,152.828,23.547Zm0-4.613A3.261,3.261,0,0,0,155.4,17.85a4.086,4.086,0,0,0,.99-2.817,3.9,3.9,0,0,0-.99-2.787,3.261,3.261,0,0,0-2.574-1.084,3.363,3.363,0,0,0-2.606,1.084,3.982,3.982,0,0,0-.957,2.787,4.171,4.171,0,0,0,.957,2.817A3.363,3.363,0,0,0,152.828,18.934Zm11.7,4.118V7.045h5.444v.8a7.081,7.081,0,0,1,1.98-.9,8.254,8.254,0,0,1,2.409-.341,6.57,6.57,0,0,1,3.3.8A5.5,5.5,0,0,1,179.9,9.738a7.292,7.292,0,0,1,.825,3.592v9.722h-5.444V14.011a2.968,2.968,0,0,0-.627-1.982,2.259,2.259,0,0,0-1.914-.774,2.8,2.8,0,0,0-2.046.712,2.736,2.736,0,0,0-.726,2.043v9.041h-5.444Zm30.94,0v-.929a5.961,5.961,0,0,1-1.881.991,6.425,6.425,0,0,1-2.211.372,8.144,8.144,0,0,1-3.167-.619,8.457,8.457,0,0,1-2.639-1.734,8.672,8.672,0,0,1-1.782-2.694,9,9,0,0,1-.627-3.406,9.084,9.084,0,0,1,.627-3.437,8.3,8.3,0,0,1,1.782-2.663,8.433,8.433,0,0,1,5.774-2.322,6.707,6.707,0,0,1,2.244.372,6.345,6.345,0,0,1,1.881.96V.45h5.444v22.6h-5.444ZM192.1,18.965a3.221,3.221,0,0,0,2.54-1.084,4.144,4.144,0,0,0,.957-2.848,4.027,4.027,0,0,0-.957-2.817,3.221,3.221,0,0,0-2.54-1.084,3.308,3.308,0,0,0-2.573,1.053,4.168,4.168,0,0,0-.924,2.848,4.289,4.289,0,0,0,.924,2.879A3.308,3.308,0,0,0,192.1,18.965Zm27.286,3.344a16.654,16.654,0,0,1-4.52,1.115,13.189,13.189,0,0,1-4.256-.248,9.724,9.724,0,0,1-3.53-1.517A7.783,7.783,0,0,1,204.64,18.9a8.371,8.371,0,0,1-.858-3.87,8.68,8.68,0,0,1,.627-3.344A8.133,8.133,0,0,1,206.256,9a8,8,0,0,1,2.8-1.8,9.379,9.379,0,0,1,3.53-.65,8.675,8.675,0,0,1,3.1.526,7.4,7.4,0,0,1,4.058,3.715,8.577,8.577,0,0,1,.792,2.848,10.514,10.514,0,0,1-.2,3.282H209.457a3.525,3.525,0,0,0,2.079,1.672,8.556,8.556,0,0,0,3.5.31,18.317,18.317,0,0,0,4.355-.991v4.4Zm-6.929-11.177a3.4,3.4,0,0,0-1.782.5,3.168,3.168,0,0,0-1.221,1.517h5.972a2.828,2.828,0,0,0-1.188-1.517A3.183,3.183,0,0,0,212.459,11.132Zm10.967,11.92V7.045h5.444v.867a7.67,7.67,0,0,1,2.31-1.022,7.8,7.8,0,0,1,2.8-.186V11.72a6.01,6.01,0,0,0-3.86.433A2.62,2.62,0,0,0,228.87,14.6v8.452h-5.444Zm13.181,0V.45h5.444v7.4a7.081,7.081,0,0,1,1.98-.9,8.254,8.254,0,0,1,2.409-.341,6.57,6.57,0,0,1,3.3.8,5.5,5.5,0,0,1,2.244,2.322,7.292,7.292,0,0,1,.825,3.592v9.722h-5.444V14.011a2.968,2.968,0,0,0-.627-1.982,2.259,2.259,0,0,0-1.914-.774,2.8,2.8,0,0,0-2.046.712,2.736,2.736,0,0,0-.726,2.043v9.041h-5.444Zm27.67.5a10.053,10.053,0,0,1-3.563-.619,8.926,8.926,0,0,1-2.87-1.8,8.656,8.656,0,0,1-1.914-2.725,8.511,8.511,0,0,1-.66-3.375,8.511,8.511,0,0,1,.66-3.375,8.3,8.3,0,0,1,1.914-2.694,8.511,8.511,0,0,1,2.87-1.765,9.626,9.626,0,0,1,3.563-.65,9.471,9.471,0,0,1,3.563.65,8.53,8.53,0,0,1,2.87,1.765,7.912,7.912,0,0,1,1.881,2.694,8.166,8.166,0,0,1,.693,3.375,8.467,8.467,0,0,1-2.574,6.1,8.946,8.946,0,0,1-2.87,1.8A9.89,9.89,0,0,1,264.277,23.547Zm0-4.613a3.261,3.261,0,0,0,2.574-1.084,4.086,4.086,0,0,0,.99-2.817,3.9,3.9,0,0,0-.99-2.787,3.261,3.261,0,0,0-2.574-1.084,3.361,3.361,0,0,0-2.606,1.084,3.982,3.982,0,0,0-.957,2.787,4.171,4.171,0,0,0,.957,2.817A3.361,3.361,0,0,0,264.277,18.934ZM291.913,7.045V23.052h-5.444v-.8a7.01,7.01,0,0,1-2.013.9,7.922,7.922,0,0,1-2.376.341,6.757,6.757,0,0,1-3.332-.8,5.769,5.769,0,0,1-2.244-2.322,7.664,7.664,0,0,1-.792-3.592V7.045h5.444v9.041a3.215,3.215,0,0,0,.594,2.012,2.406,2.406,0,0,0,1.947.743,2.8,2.8,0,0,0,2.046-.712,2.736,2.736,0,0,0,.726-2.043V7.045h5.444Zm15,16.007v-.929a5.96,5.96,0,0,1-1.881.991,6.425,6.425,0,0,1-2.211.372,8.144,8.144,0,0,1-3.167-.619,8.457,8.457,0,0,1-2.639-1.734,8.671,8.671,0,0,1-1.782-2.694,9,9,0,0,1-.627-3.406,9.084,9.084,0,0,1,.627-3.437,8.3,8.3,0,0,1,1.782-2.663,8.433,8.433,0,0,1,5.774-2.322,6.711,6.711,0,0,1,2.244.372,6.345,6.345,0,0,1,1.881.96V.45h5.444v22.6h-5.444Zm-3.365-4.087a3.223,3.223,0,0,0,2.54-1.084,4.144,4.144,0,0,0,.957-2.848,4.027,4.027,0,0,0-.957-2.817,3.223,3.223,0,0,0-2.54-1.084,3.307,3.307,0,0,0-2.573,1.053,4.168,4.168,0,0,0-.924,2.848,4.289,4.289,0,0,0,.924,2.879A3.307,3.307,0,0,0,303.552,18.965Z" transform="translate(-4.085 -0.45)" fill="#fff"/>
      </g>
    </g>
    <g id="Layer_1" transform="translate(-12951.404 -23044)" clip-path="url(#clip-path)">
      <path id="Path_10818" data-name="Path 10818" d="M0,22.582l4.765-4.764V4.765H44.64v34.51l4.765,4.766V0H0ZM22.85,46.594v2.812H20.038V46.594Zm-2.813-3.655H22.85V45.75H20.038Zm-.843,3.655v2.812H16.383V46.594Zm-2.811-3.655H19.2V45.75H16.384Zm-.137-8.8L.979,49.4H7.718l11.9-11.9,11.9,11.9h6.738L22.985,34.136l2.275-2.274L42.8,49.4h6.6v-.137L28.63,28.493l-3.37-3.37-2.275-2.274L19.616,19.48l-3.37,3.369-2.274,2.274L11.7,22.849,8.327,19.48,4.958,22.849,0,27.809v6.739L8.328,26.22,10.6,28.494,0,39.1v6.739L13.973,31.862l3.369-3.37,2.275-2.274,2.274,2.274-2.274,2.274-2.549,2.548-.821.821Z" fill="#cda349" fill-rule="evenodd"/>
    </g>
  </g>
</svg>
