<svg width="415" height="60" viewBox="0 0 415 60" fill="none" xmlns="http://www.w3.org/2000/svg">
<g clip-path="url(#clip0_1_66)">
<path fill-rule="evenodd" clip-rule="evenodd" d="M0 27.4256L5.78745 21.6394V5.78733H54.2138V47.6987L60.0012 53.4873V0H0V27.4256ZM27.7508 56.5867V60.0012H24.3351V56.5867H27.7508ZM24.3351 52.1476H27.7508V55.562H24.3351V52.1476ZM23.3115 56.5867V60.0012H19.897V56.5867H23.3115ZM19.8982 52.1476H23.3127V55.562H19.8982V52.1476ZM19.7316 41.4576L1.18887 60H9.37338L23.8245 45.5492L38.2744 60H46.4577L27.9149 41.4576L30.6777 38.6961L51.9821 60H60V59.8334L34.7706 34.6033L30.6777 30.5105L27.9149 27.749L23.8233 23.6575L19.7304 27.749L16.9689 30.5105L14.2061 27.749L10.1133 23.6575L6.02161 27.749L0 33.7729V41.9573L10.1145 31.843L12.8772 34.6045L0 47.4803V55.6646L16.9701 38.6949L21.0617 34.6021L23.8245 31.8406L26.5861 34.6021L23.8245 37.3636L20.7286 40.4582L19.7316 41.4552V41.4576Z" fill="#CDA349"/>
</g>
<g filter="url(#filter0_d_1_66)">
<path d="M103.49 41.74C101.063 42.72 98.8 43.28 96.7 43.42C94.6233 43.5833 92.745 43.3967 91.065 42.86C89.385 42.3 87.95 41.46 86.76 40.34C85.57 39.22 84.66 37.89 84.03 36.35C83.4 34.81 83.085 33.13 83.085 31.31C83.085 29.5133 83.3767 27.8567 83.96 26.34C84.5433 24.8 85.395 23.47 86.515 22.35C87.6583 21.23 89.035 20.355 90.645 19.725C92.255 19.095 94.0867 18.7917 96.14 18.815C98.1933 18.815 100.445 19.1883 102.895 19.935C102.895 20.915 102.895 21.9067 102.895 22.91C102.895 23.89 102.895 24.87 102.895 25.85C100.958 25.08 99.1617 24.6367 97.505 24.52C95.8717 24.4033 94.4367 24.5783 93.2 25.045C91.9867 25.5117 91.03 26.2583 90.33 27.285C89.6533 28.2883 89.315 29.5483 89.315 31.065C89.315 32.395 89.56 33.5733 90.05 34.6C90.5633 35.6267 91.275 36.4317 92.185 37.015C93.095 37.5983 94.1333 37.89 95.3 37.89C95.6967 37.89 96.0933 37.8783 96.49 37.855C96.8867 37.8083 97.2717 37.7383 97.645 37.645C97.645 37.0383 97.645 36.42 97.645 35.79C97.645 35.16 97.645 34.5417 97.645 33.935C96.9917 33.935 96.3383 33.935 95.685 33.935C95.0317 33.935 94.3783 33.935 93.725 33.935C93.725 33.0717 93.725 32.2083 93.725 31.345C93.725 30.4583 93.725 29.5833 93.725 28.72C95.335 28.72 96.9567 28.72 98.59 28.72C100.247 28.72 101.88 28.72 103.49 28.72C103.49 30.8667 103.49 33.0367 103.49 35.23C103.49 37.4233 103.49 39.5933 103.49 41.74ZM107.927 43C107.927 39.08 107.927 35.1133 107.927 31.1C107.927 27.0867 107.927 23.12 107.927 19.2C109.374 19.2 110.832 19.2 112.302 19.2C113.772 19.2 115.231 19.2 116.677 19.2C117.354 21.58 118.019 23.995 118.672 26.445C119.349 28.8717 120.014 31.275 120.667 33.655C121.321 31.275 121.974 28.8717 122.627 26.445C123.304 23.995 123.969 21.58 124.622 19.2C126.069 19.2 127.516 19.2 128.962 19.2C130.409 19.2 131.844 19.2 133.267 19.2C133.291 23.12 133.314 27.0867 133.337 31.1C133.361 35.1133 133.384 39.08 133.407 43C132.427 43 131.436 43 130.432 43C129.452 43 128.472 43 127.492 43C127.492 40.34 127.492 37.6567 127.492 34.95C127.492 32.22 127.492 29.525 127.492 26.865C126.792 29.525 126.081 32.22 125.357 34.95C124.634 37.6567 123.922 40.34 123.222 43C122.359 43 121.472 43 120.562 43C119.676 43 118.789 43 117.902 43C117.202 40.3867 116.502 37.75 115.802 35.09C115.102 32.4067 114.402 29.7583 113.702 27.145C113.702 29.7583 113.702 32.4067 113.702 35.09C113.702 37.75 113.702 40.3867 113.702 43C112.769 43 111.812 43 110.832 43C109.852 43 108.884 43 107.927 43ZM137.971 43C137.971 39.08 137.971 35.1133 137.971 31.1C137.971 27.0867 137.971 23.12 137.971 19.2C138.998 19.2 140.025 19.2 141.051 19.2C142.078 19.2 143.093 19.2 144.096 19.2C144.096 20.7167 144.096 22.2567 144.096 23.82C144.096 25.36 144.096 26.8883 144.096 28.405C145.286 26.8883 146.476 25.36 147.666 23.82C148.88 22.2567 150.081 20.7167 151.271 19.2C152.415 19.2 153.57 19.2 154.736 19.2C155.903 19.2 157.058 19.2 158.201 19.2C156.731 21.0667 155.238 22.9567 153.721 24.87C152.228 26.76 150.746 28.6383 149.276 30.505C150.816 32.5583 152.368 34.635 153.931 36.735C155.518 38.835 157.081 40.9233 158.621 43C157.408 43 156.183 43 154.946 43C153.733 43 152.52 43 151.306 43C150.116 41.3433 148.915 39.6867 147.701 38.03C146.488 36.35 145.286 34.6933 144.096 33.06C144.096 34.6933 144.096 36.35 144.096 38.03C144.096 39.6867 144.096 41.3433 144.096 43C143.093 43 142.078 43 141.051 43C140.025 43 138.998 43 137.971 43ZM167.879 43C167.879 39.08 167.879 35.1133 167.879 31.1C167.879 27.0867 167.879 23.12 167.879 19.2C169.279 19.2 170.69 19.2 172.114 19.2C173.537 19.2 174.949 19.2 176.349 19.2C178.075 19.2 179.662 19.5033 181.109 20.11C182.555 20.6933 183.815 21.5217 184.889 22.595C185.962 23.6683 186.79 24.9283 187.374 26.375C187.98 27.7983 188.284 29.3617 188.284 31.065C188.284 32.7683 187.98 34.3433 187.374 35.79C186.79 37.2367 185.962 38.5083 184.889 39.605C183.815 40.6783 182.555 41.5183 181.109 42.125C179.662 42.7083 178.075 43 176.349 43C174.949 43 173.537 43 172.114 43C170.69 43 169.279 43 167.879 43ZM176.349 24.73C175.975 24.73 175.59 24.73 175.194 24.73C174.797 24.73 174.4 24.73 174.004 24.73C174.004 26.83 174.004 28.9533 174.004 31.1C174.004 33.2467 174.004 35.37 174.004 37.47C174.4 37.47 174.797 37.47 175.194 37.47C175.59 37.47 175.975 37.47 176.349 37.47C177.515 37.47 178.53 37.19 179.394 36.63C180.257 36.07 180.922 35.3117 181.389 34.355C181.855 33.375 182.089 32.2783 182.089 31.065C182.089 29.8517 181.855 28.7667 181.389 27.81C180.922 26.8533 180.257 26.1067 179.394 25.57C178.53 25.01 177.515 24.73 176.349 24.73ZM203.358 43C203.358 42.8133 203.358 42.6383 203.358 42.475C203.358 42.2883 203.358 42.1133 203.358 41.95C202.775 42.44 202.11 42.8133 201.363 43.07C200.64 43.35 199.858 43.49 199.018 43.49C197.828 43.49 196.708 43.2683 195.658 42.825C194.608 42.3583 193.675 41.705 192.858 40.865C192.065 40.0017 191.435 38.9867 190.968 37.82C190.525 36.6533 190.303 35.3583 190.303 33.935C190.303 32.4883 190.525 31.1817 190.968 30.015C191.435 28.8483 192.065 27.8567 192.858 27.04C193.675 26.2 194.608 25.5583 195.658 25.115C196.708 24.6483 197.817 24.415 198.983 24.415C199.823 24.415 200.617 24.555 201.363 24.835C202.11 25.0917 202.775 25.4533 203.358 25.92C203.358 25.7333 203.358 25.5583 203.358 25.395C203.358 25.2317 203.358 25.0683 203.358 24.905C204.315 24.905 205.283 24.905 206.263 24.905C207.243 24.905 208.2 24.905 209.133 24.905C209.133 27.8917 209.133 30.9133 209.133 33.97C209.133 37.0033 209.133 40.0133 209.133 43C208.2 43 207.243 43 206.263 43C205.283 43 204.315 43 203.358 43ZM199.788 38.38C200.908 38.38 201.807 37.9717 202.483 37.155C203.16 36.3383 203.498 35.265 203.498 33.935C203.498 32.605 203.16 31.5433 202.483 30.75C201.807 29.9333 200.908 29.525 199.788 29.525C198.645 29.525 197.735 29.9217 197.058 30.715C196.405 31.5083 196.078 32.5817 196.078 33.935C196.078 35.2883 196.405 36.3733 197.058 37.19C197.735 37.9833 198.645 38.38 199.788 38.38ZM213.163 43C213.163 38.7767 213.163 34.5183 213.163 30.225C213.163 25.9317 213.163 21.6733 213.163 17.45C214.119 17.45 215.088 17.45 216.068 17.45C217.048 17.45 218.004 17.45 218.938 17.45C218.938 19.7367 218.938 22.0583 218.938 24.415C218.938 26.7717 218.938 29.0933 218.938 31.38C219.778 30.3067 220.618 29.2333 221.458 28.16C222.298 27.0633 223.138 25.9783 223.978 24.905C225.098 24.905 226.218 24.905 227.338 24.905C228.481 24.905 229.613 24.905 230.733 24.905C229.636 26.2817 228.516 27.67 227.373 29.07C226.253 30.47 225.144 31.8583 224.048 33.235C225.214 34.845 226.381 36.4783 227.548 38.135C228.738 39.7683 229.904 41.39 231.048 43C229.904 43 228.761 43 227.618 43C226.474 43 225.331 43 224.188 43C223.324 41.7633 222.449 40.515 221.563 39.255C220.676 37.9717 219.801 36.7117 218.938 35.475C218.938 36.7117 218.938 37.9717 218.938 39.255C218.938 40.515 218.938 41.7633 218.938 43C218.004 43 217.048 43 216.068 43C215.088 43 214.119 43 213.163 43ZM240.874 43.56C239.521 43.56 238.261 43.3267 237.094 42.86C235.927 42.37 234.912 41.6933 234.049 40.83C233.186 39.9433 232.509 38.9167 232.019 37.75C231.552 36.5833 231.319 35.3117 231.319 33.935C231.319 32.5583 231.552 31.2867 232.019 30.12C232.509 28.9533 233.186 27.9383 234.049 27.075C234.912 26.2117 235.927 25.5467 237.094 25.08C238.261 24.59 239.521 24.345 240.874 24.345C242.251 24.345 243.511 24.59 244.654 25.08C245.821 25.5467 246.836 26.2117 247.699 27.075C248.562 27.9383 249.227 28.9533 249.694 30.12C250.184 31.2867 250.429 32.5583 250.429 33.935C250.429 35.3117 250.184 36.5833 249.694 37.75C249.227 38.9167 248.562 39.9433 247.699 40.83C246.836 41.6933 245.821 42.37 244.654 42.86C243.511 43.3267 242.251 43.56 240.874 43.56ZM240.874 38.345C242.017 38.345 242.927 37.9367 243.604 37.12C244.304 36.28 244.654 35.2183 244.654 33.935C244.654 32.6283 244.304 31.5783 243.604 30.785C242.927 29.9683 242.017 29.56 240.874 29.56C239.731 29.56 238.809 29.9683 238.109 30.785C237.432 31.5783 237.094 32.6283 237.094 33.935C237.094 35.2183 237.432 36.28 238.109 37.12C238.809 37.9367 239.731 38.345 240.874 38.345ZM253.285 43C253.285 40.0133 253.285 37.0033 253.285 33.97C253.285 30.9133 253.285 27.8917 253.285 24.905C254.242 24.905 255.21 24.905 256.19 24.905C257.17 24.905 258.127 24.905 259.06 24.905C259.06 25.0683 259.06 25.22 259.06 25.36C259.06 25.5 259.06 25.6517 259.06 25.815C259.69 25.3717 260.39 25.0333 261.16 24.8C261.954 24.5433 262.805 24.415 263.715 24.415C265.045 24.415 266.212 24.7183 267.215 25.325C268.242 25.9317 269.035 26.8067 269.595 27.95C270.179 29.07 270.47 30.4233 270.47 32.01C270.47 33.83 270.47 35.6617 270.47 37.505C270.47 39.3483 270.47 41.18 270.47 43C269.537 43 268.58 43 267.6 43C266.62 43 265.652 43 264.695 43C264.695 41.32 264.695 39.6167 264.695 37.89C264.695 36.1633 264.695 34.46 264.695 32.78C264.695 31.8467 264.474 31.1 264.03 30.54C263.61 29.9567 262.934 29.665 262 29.665C261.067 29.665 260.344 29.9333 259.83 30.47C259.317 31.0067 259.06 31.7767 259.06 32.78C259.06 34.46 259.06 36.1633 259.06 37.89C259.06 39.6167 259.06 41.32 259.06 43C258.127 43 257.17 43 256.19 43C255.21 43 254.242 43 253.285 43ZM286.107 43C286.107 42.8133 286.107 42.6383 286.107 42.475C286.107 42.2883 286.107 42.1133 286.107 41.95C285.524 42.44 284.859 42.8133 284.112 43.07C283.389 43.35 282.607 43.49 281.767 43.49C280.577 43.49 279.457 43.2567 278.407 42.79C277.357 42.3233 276.424 41.67 275.607 40.83C274.814 39.9667 274.184 38.9517 273.717 37.785C273.274 36.6183 273.052 35.335 273.052 33.935C273.052 32.5117 273.274 31.2167 273.717 30.05C274.184 28.8833 274.814 27.88 275.607 27.04C276.424 26.2 277.357 25.5583 278.407 25.115C279.457 24.6483 280.566 24.415 281.732 24.415C282.572 24.415 283.366 24.555 284.112 24.835C284.859 25.0917 285.524 25.4533 286.107 25.92C286.107 24.52 286.107 23.1083 286.107 21.685C286.107 20.2617 286.107 18.85 286.107 17.45C287.064 17.45 288.032 17.45 289.012 17.45C289.992 17.45 290.949 17.45 291.882 17.45C291.882 21.6733 291.882 25.9317 291.882 30.225C291.882 34.5183 291.882 38.7767 291.882 43C290.949 43 289.992 43 289.012 43C288.032 43 287.064 43 286.107 43ZM282.537 38.38C283.657 38.38 284.556 37.9717 285.232 37.155C285.909 36.3383 286.247 35.265 286.247 33.935C286.247 32.605 285.909 31.5433 285.232 30.75C284.556 29.9333 283.657 29.525 282.537 29.525C281.394 29.525 280.484 29.9217 279.807 30.715C279.154 31.5083 278.827 32.5817 278.827 33.935C278.827 35.2883 279.154 36.3733 279.807 37.19C280.484 37.9833 281.394 38.38 282.537 38.38ZM311.482 42.16C309.872 42.8367 308.274 43.2567 306.687 43.42C305.101 43.5833 303.596 43.49 302.172 43.14C300.772 42.8133 299.524 42.2417 298.427 41.425C297.331 40.6083 296.467 39.57 295.837 38.31C295.231 37.05 294.927 35.5917 294.927 33.935C294.927 32.5583 295.149 31.2983 295.592 30.155C296.059 28.9883 296.712 27.9733 297.552 27.11C298.392 26.2233 299.384 25.5467 300.527 25.08C301.671 24.59 302.919 24.345 304.272 24.345C305.486 24.345 306.582 24.5433 307.562 24.94C308.542 25.3367 309.394 25.8967 310.117 26.62C310.841 27.32 311.424 28.16 311.867 29.14C312.311 30.12 312.591 31.1933 312.707 32.36C312.824 33.5267 312.754 34.7633 312.497 36.07C310.584 36.07 308.659 36.07 306.722 36.07C304.786 36.07 302.861 36.07 300.947 36.07C301.391 36.9567 302.126 37.5867 303.152 37.96C304.202 38.3333 305.439 38.45 306.862 38.31C308.309 38.17 309.849 37.7967 311.482 37.19C311.482 38.0067 311.482 38.835 311.482 39.675C311.482 40.515 311.482 41.3433 311.482 42.16ZM304.132 29.525C303.456 29.525 302.826 29.7117 302.242 30.085C301.682 30.4583 301.251 31.03 300.947 31.8C301.997 31.8 303.047 31.8 304.097 31.8C305.171 31.8 306.232 31.8 307.282 31.8C307.002 31.0067 306.582 30.435 306.022 30.085C305.486 29.7117 304.856 29.525 304.132 29.525ZM315.766 43C315.766 40.0133 315.766 37.0033 315.766 33.97C315.766 30.9133 315.766 27.8917 315.766 24.905C316.722 24.905 317.691 24.905 318.671 24.905C319.651 24.905 320.607 24.905 321.541 24.905C321.541 25.0683 321.541 25.2317 321.541 25.395C321.541 25.5583 321.541 25.7217 321.541 25.885C322.264 25.3717 323.081 24.9867 323.991 24.73C324.901 24.4733 325.892 24.4033 326.966 24.52C326.966 25.4533 326.966 26.3983 326.966 27.355C326.966 28.3117 326.966 29.2567 326.966 30.19C325.122 29.9333 323.757 30.0967 322.871 30.68C321.984 31.24 321.541 32.1617 321.541 33.445C321.541 35.0083 321.541 36.595 321.541 38.205C321.541 39.815 321.541 41.4133 321.541 43C320.607 43 319.651 43 318.671 43C317.691 43 316.722 43 315.766 43ZM329.749 43C329.749 38.7767 329.749 34.5183 329.749 30.225C329.749 25.9317 329.749 21.6733 329.749 17.45C330.706 17.45 331.674 17.45 332.654 17.45C333.634 17.45 334.591 17.45 335.524 17.45C335.524 18.8267 335.524 20.2267 335.524 21.65C335.524 23.05 335.524 24.4383 335.524 25.815C336.154 25.3717 336.854 25.0333 337.624 24.8C338.418 24.5433 339.269 24.415 340.179 24.415C341.509 24.415 342.676 24.7183 343.679 25.325C344.706 25.9317 345.499 26.8067 346.059 27.95C346.643 29.07 346.934 30.4233 346.934 32.01C346.934 33.83 346.934 35.6617 346.934 37.505C346.934 39.3483 346.934 41.18 346.934 43C346.001 43 345.044 43 344.064 43C343.084 43 342.116 43 341.159 43C341.159 41.32 341.159 39.6167 341.159 37.89C341.159 36.1633 341.159 34.46 341.159 32.78C341.159 31.8467 340.938 31.1 340.494 30.54C340.074 29.9567 339.398 29.665 338.464 29.665C337.531 29.665 336.808 29.9333 336.294 30.47C335.781 31.0067 335.524 31.7767 335.524 32.78C335.524 34.46 335.524 36.1633 335.524 37.89C335.524 39.6167 335.524 41.32 335.524 43C334.591 43 333.634 43 332.654 43C331.674 43 330.706 43 329.749 43ZM359.102 43.56C357.748 43.56 356.488 43.3267 355.322 42.86C354.155 42.37 353.14 41.6933 352.277 40.83C351.413 39.9433 350.737 38.9167 350.247 37.75C349.78 36.5833 349.547 35.3117 349.547 33.935C349.547 32.5583 349.78 31.2867 350.247 30.12C350.737 28.9533 351.413 27.9383 352.277 27.075C353.14 26.2117 354.155 25.5467 355.322 25.08C356.488 24.59 357.748 24.345 359.102 24.345C360.478 24.345 361.738 24.59 362.882 25.08C364.048 25.5467 365.063 26.2117 365.927 27.075C366.79 27.9383 367.455 28.9533 367.922 30.12C368.412 31.2867 368.657 32.5583 368.657 33.935C368.657 35.3117 368.412 36.5833 367.922 37.75C367.455 38.9167 366.79 39.9433 365.927 40.83C365.063 41.6933 364.048 42.37 362.882 42.86C361.738 43.3267 360.478 43.56 359.102 43.56ZM359.102 38.345C360.245 38.345 361.155 37.9367 361.832 37.12C362.532 36.28 362.882 35.2183 362.882 33.935C362.882 32.6283 362.532 31.5783 361.832 30.785C361.155 29.9683 360.245 29.56 359.102 29.56C357.958 29.56 357.037 29.9683 356.337 30.785C355.66 31.5783 355.322 32.6283 355.322 33.935C355.322 35.2183 355.66 36.28 356.337 37.12C357.037 37.9367 357.958 38.345 359.102 38.345ZM388.418 24.905C388.418 27.8917 388.418 30.9133 388.418 33.97C388.418 37.0033 388.418 40.0133 388.418 43C387.485 43 386.528 43 385.548 43C384.568 43 383.6 43 382.643 43C382.643 42.8367 382.643 42.685 382.643 42.545C382.643 42.405 382.643 42.2533 382.643 42.09C382.013 42.5333 381.301 42.8717 380.508 43.105C379.738 43.3617 378.898 43.49 377.988 43.49C376.658 43.49 375.48 43.1867 374.453 42.58C373.45 41.9733 372.656 41.0983 372.073 39.955C371.513 38.8117 371.233 37.4583 371.233 35.895C371.233 34.075 371.233 32.2433 371.233 30.4C371.233 28.5567 371.233 26.725 371.233 24.905C372.19 24.905 373.158 24.905 374.138 24.905C375.118 24.905 376.075 24.905 377.008 24.905C377.008 26.585 377.008 28.2883 377.008 30.015C377.008 31.7417 377.008 33.445 377.008 35.125C377.008 36.0583 377.218 36.8167 377.638 37.4C378.081 37.96 378.77 38.24 379.703 38.24C380.636 38.24 381.36 37.9717 381.873 37.435C382.386 36.8983 382.643 36.1283 382.643 35.125C382.643 33.445 382.643 31.7417 382.643 30.015C382.643 28.2883 382.643 26.585 382.643 24.905C383.6 24.905 384.568 24.905 385.548 24.905C386.528 24.905 387.485 24.905 388.418 24.905ZM404.335 43C404.335 42.8133 404.335 42.6383 404.335 42.475C404.335 42.2883 404.335 42.1133 404.335 41.95C403.752 42.44 403.087 42.8133 402.34 43.07C401.617 43.35 400.835 43.49 399.995 43.49C398.805 43.49 397.685 43.2567 396.635 42.79C395.585 42.3233 394.652 41.67 393.835 40.83C393.042 39.9667 392.412 38.9517 391.945 37.785C391.502 36.6183 391.28 35.335 391.28 33.935C391.28 32.5117 391.502 31.2167 391.945 30.05C392.412 28.8833 393.042 27.88 393.835 27.04C394.652 26.2 395.585 25.5583 396.635 25.115C397.685 24.6483 398.793 24.415 399.96 24.415C400.8 24.415 401.593 24.555 402.34 24.835C403.087 25.0917 403.752 25.4533 404.335 25.92C404.335 24.52 404.335 23.1083 404.335 21.685C404.335 20.2617 404.335 18.85 404.335 17.45C405.292 17.45 406.26 17.45 407.24 17.45C408.22 17.45 409.177 17.45 410.11 17.45C410.11 21.6733 410.11 25.9317 410.11 30.225C410.11 34.5183 410.11 38.7767 410.11 43C409.177 43 408.22 43 407.24 43C406.26 43 405.292 43 404.335 43ZM400.765 38.38C401.885 38.38 402.783 37.9717 403.46 37.155C404.137 36.3383 404.475 35.265 404.475 33.935C404.475 32.605 404.137 31.5433 403.46 30.75C402.783 29.9333 401.885 29.525 400.765 29.525C399.622 29.525 398.712 29.9217 398.035 30.715C397.382 31.5083 397.055 32.5817 397.055 33.935C397.055 35.2883 397.382 36.3733 398.035 37.19C398.712 37.9833 399.622 38.38 400.765 38.38Z" fill="#11162E"/>
<path d="M103.49 41.74C101.063 42.72 98.8 43.28 96.7 43.42C94.6233 43.5833 92.745 43.3967 91.065 42.86C89.385 42.3 87.95 41.46 86.76 40.34C85.57 39.22 84.66 37.89 84.03 36.35C83.4 34.81 83.085 33.13 83.085 31.31C83.085 29.5133 83.3767 27.8567 83.96 26.34C84.5433 24.8 85.395 23.47 86.515 22.35C87.6583 21.23 89.035 20.355 90.645 19.725C92.255 19.095 94.0867 18.7917 96.14 18.815C98.1933 18.815 100.445 19.1883 102.895 19.935C102.895 20.915 102.895 21.9067 102.895 22.91C102.895 23.89 102.895 24.87 102.895 25.85C100.958 25.08 99.1617 24.6367 97.505 24.52C95.8717 24.4033 94.4367 24.5783 93.2 25.045C91.9867 25.5117 91.03 26.2583 90.33 27.285C89.6533 28.2883 89.315 29.5483 89.315 31.065C89.315 32.395 89.56 33.5733 90.05 34.6C90.5633 35.6267 91.275 36.4317 92.185 37.015C93.095 37.5983 94.1333 37.89 95.3 37.89C95.6967 37.89 96.0933 37.8783 96.49 37.855C96.8867 37.8083 97.2717 37.7383 97.645 37.645C97.645 37.0383 97.645 36.42 97.645 35.79C97.645 35.16 97.645 34.5417 97.645 33.935C96.9917 33.935 96.3383 33.935 95.685 33.935C95.0317 33.935 94.3783 33.935 93.725 33.935C93.725 33.0717 93.725 32.2083 93.725 31.345C93.725 30.4583 93.725 29.5833 93.725 28.72C95.335 28.72 96.9567 28.72 98.59 28.72C100.247 28.72 101.88 28.72 103.49 28.72C103.49 30.8667 103.49 33.0367 103.49 35.23C103.49 37.4233 103.49 39.5933 103.49 41.74ZM107.927 43C107.927 39.08 107.927 35.1133 107.927 31.1C107.927 27.0867 107.927 23.12 107.927 19.2C109.374 19.2 110.832 19.2 112.302 19.2C113.772 19.2 115.231 19.2 116.677 19.2C117.354 21.58 118.019 23.995 118.672 26.445C119.349 28.8717 120.014 31.275 120.667 33.655C121.321 31.275 121.974 28.8717 122.627 26.445C123.304 23.995 123.969 21.58 124.622 19.2C126.069 19.2 127.516 19.2 128.962 19.2C130.409 19.2 131.844 19.2 133.267 19.2C133.291 23.12 133.314 27.0867 133.337 31.1C133.361 35.1133 133.384 39.08 133.407 43C132.427 43 131.436 43 130.432 43C129.452 43 128.472 43 127.492 43C127.492 40.34 127.492 37.6567 127.492 34.95C127.492 32.22 127.492 29.525 127.492 26.865C126.792 29.525 126.081 32.22 125.357 34.95C124.634 37.6567 123.922 40.34 123.222 43C122.359 43 121.472 43 120.562 43C119.676 43 118.789 43 117.902 43C117.202 40.3867 116.502 37.75 115.802 35.09C115.102 32.4067 114.402 29.7583 113.702 27.145C113.702 29.7583 113.702 32.4067 113.702 35.09C113.702 37.75 113.702 40.3867 113.702 43C112.769 43 111.812 43 110.832 43C109.852 43 108.884 43 107.927 43ZM137.971 43C137.971 39.08 137.971 35.1133 137.971 31.1C137.971 27.0867 137.971 23.12 137.971 19.2C138.998 19.2 140.025 19.2 141.051 19.2C142.078 19.2 143.093 19.2 144.096 19.2C144.096 20.7167 144.096 22.2567 144.096 23.82C144.096 25.36 144.096 26.8883 144.096 28.405C145.286 26.8883 146.476 25.36 147.666 23.82C148.88 22.2567 150.081 20.7167 151.271 19.2C152.415 19.2 153.57 19.2 154.736 19.2C155.903 19.2 157.058 19.2 158.201 19.2C156.731 21.0667 155.238 22.9567 153.721 24.87C152.228 26.76 150.746 28.6383 149.276 30.505C150.816 32.5583 152.368 34.635 153.931 36.735C155.518 38.835 157.081 40.9233 158.621 43C157.408 43 156.183 43 154.946 43C153.733 43 152.52 43 151.306 43C150.116 41.3433 148.915 39.6867 147.701 38.03C146.488 36.35 145.286 34.6933 144.096 33.06C144.096 34.6933 144.096 36.35 144.096 38.03C144.096 39.6867 144.096 41.3433 144.096 43C143.093 43 142.078 43 141.051 43C140.025 43 138.998 43 137.971 43ZM167.879 43C167.879 39.08 167.879 35.1133 167.879 31.1C167.879 27.0867 167.879 23.12 167.879 19.2C169.279 19.2 170.69 19.2 172.114 19.2C173.537 19.2 174.949 19.2 176.349 19.2C178.075 19.2 179.662 19.5033 181.109 20.11C182.555 20.6933 183.815 21.5217 184.889 22.595C185.962 23.6683 186.79 24.9283 187.374 26.375C187.98 27.7983 188.284 29.3617 188.284 31.065C188.284 32.7683 187.98 34.3433 187.374 35.79C186.79 37.2367 185.962 38.5083 184.889 39.605C183.815 40.6783 182.555 41.5183 181.109 42.125C179.662 42.7083 178.075 43 176.349 43C174.949 43 173.537 43 172.114 43C170.69 43 169.279 43 167.879 43ZM176.349 24.73C175.975 24.73 175.59 24.73 175.194 24.73C174.797 24.73 174.4 24.73 174.004 24.73C174.004 26.83 174.004 28.9533 174.004 31.1C174.004 33.2467 174.004 35.37 174.004 37.47C174.4 37.47 174.797 37.47 175.194 37.47C175.59 37.47 175.975 37.47 176.349 37.47C177.515 37.47 178.53 37.19 179.394 36.63C180.257 36.07 180.922 35.3117 181.389 34.355C181.855 33.375 182.089 32.2783 182.089 31.065C182.089 29.8517 181.855 28.7667 181.389 27.81C180.922 26.8533 180.257 26.1067 179.394 25.57C178.53 25.01 177.515 24.73 176.349 24.73ZM203.358 43C203.358 42.8133 203.358 42.6383 203.358 42.475C203.358 42.2883 203.358 42.1133 203.358 41.95C202.775 42.44 202.11 42.8133 201.363 43.07C200.64 43.35 199.858 43.49 199.018 43.49C197.828 43.49 196.708 43.2683 195.658 42.825C194.608 42.3583 193.675 41.705 192.858 40.865C192.065 40.0017 191.435 38.9867 190.968 37.82C190.525 36.6533 190.303 35.3583 190.303 33.935C190.303 32.4883 190.525 31.1817 190.968 30.015C191.435 28.8483 192.065 27.8567 192.858 27.04C193.675 26.2 194.608 25.5583 195.658 25.115C196.708 24.6483 197.817 24.415 198.983 24.415C199.823 24.415 200.617 24.555 201.363 24.835C202.11 25.0917 202.775 25.4533 203.358 25.92C203.358 25.7333 203.358 25.5583 203.358 25.395C203.358 25.2317 203.358 25.0683 203.358 24.905C204.315 24.905 205.283 24.905 206.263 24.905C207.243 24.905 208.2 24.905 209.133 24.905C209.133 27.8917 209.133 30.9133 209.133 33.97C209.133 37.0033 209.133 40.0133 209.133 43C208.2 43 207.243 43 206.263 43C205.283 43 204.315 43 203.358 43ZM199.788 38.38C200.908 38.38 201.807 37.9717 202.483 37.155C203.16 36.3383 203.498 35.265 203.498 33.935C203.498 32.605 203.16 31.5433 202.483 30.75C201.807 29.9333 200.908 29.525 199.788 29.525C198.645 29.525 197.735 29.9217 197.058 30.715C196.405 31.5083 196.078 32.5817 196.078 33.935C196.078 35.2883 196.405 36.3733 197.058 37.19C197.735 37.9833 198.645 38.38 199.788 38.38ZM213.163 43C213.163 38.7767 213.163 34.5183 213.163 30.225C213.163 25.9317 213.163 21.6733 213.163 17.45C214.119 17.45 215.088 17.45 216.068 17.45C217.048 17.45 218.004 17.45 218.938 17.45C218.938 19.7367 218.938 22.0583 218.938 24.415C218.938 26.7717 218.938 29.0933 218.938 31.38C219.778 30.3067 220.618 29.2333 221.458 28.16C222.298 27.0633 223.138 25.9783 223.978 24.905C225.098 24.905 226.218 24.905 227.338 24.905C228.481 24.905 229.613 24.905 230.733 24.905C229.636 26.2817 228.516 27.67 227.373 29.07C226.253 30.47 225.144 31.8583 224.048 33.235C225.214 34.845 226.381 36.4783 227.548 38.135C228.738 39.7683 229.904 41.39 231.048 43C229.904 43 228.761 43 227.618 43C226.474 43 225.331 43 224.188 43C223.324 41.7633 222.449 40.515 221.563 39.255C220.676 37.9717 219.801 36.7117 218.938 35.475C218.938 36.7117 218.938 37.9717 218.938 39.255C218.938 40.515 218.938 41.7633 218.938 43C218.004 43 217.048 43 216.068 43C215.088 43 214.119 43 213.163 43ZM240.874 43.56C239.521 43.56 238.261 43.3267 237.094 42.86C235.927 42.37 234.912 41.6933 234.049 40.83C233.186 39.9433 232.509 38.9167 232.019 37.75C231.552 36.5833 231.319 35.3117 231.319 33.935C231.319 32.5583 231.552 31.2867 232.019 30.12C232.509 28.9533 233.186 27.9383 234.049 27.075C234.912 26.2117 235.927 25.5467 237.094 25.08C238.261 24.59 239.521 24.345 240.874 24.345C242.251 24.345 243.511 24.59 244.654 25.08C245.821 25.5467 246.836 26.2117 247.699 27.075C248.562 27.9383 249.227 28.9533 249.694 30.12C250.184 31.2867 250.429 32.5583 250.429 33.935C250.429 35.3117 250.184 36.5833 249.694 37.75C249.227 38.9167 248.562 39.9433 247.699 40.83C246.836 41.6933 245.821 42.37 244.654 42.86C243.511 43.3267 242.251 43.56 240.874 43.56ZM240.874 38.345C242.017 38.345 242.927 37.9367 243.604 37.12C244.304 36.28 244.654 35.2183 244.654 33.935C244.654 32.6283 244.304 31.5783 243.604 30.785C242.927 29.9683 242.017 29.56 240.874 29.56C239.731 29.56 238.809 29.9683 238.109 30.785C237.432 31.5783 237.094 32.6283 237.094 33.935C237.094 35.2183 237.432 36.28 238.109 37.12C238.809 37.9367 239.731 38.345 240.874 38.345ZM253.285 43C253.285 40.0133 253.285 37.0033 253.285 33.97C253.285 30.9133 253.285 27.8917 253.285 24.905C254.242 24.905 255.21 24.905 256.19 24.905C257.17 24.905 258.127 24.905 259.06 24.905C259.06 25.0683 259.06 25.22 259.06 25.36C259.06 25.5 259.06 25.6517 259.06 25.815C259.69 25.3717 260.39 25.0333 261.16 24.8C261.954 24.5433 262.805 24.415 263.715 24.415C265.045 24.415 266.212 24.7183 267.215 25.325C268.242 25.9317 269.035 26.8067 269.595 27.95C270.179 29.07 270.47 30.4233 270.47 32.01C270.47 33.83 270.47 35.6617 270.47 37.505C270.47 39.3483 270.47 41.18 270.47 43C269.537 43 268.58 43 267.6 43C266.62 43 265.652 43 264.695 43C264.695 41.32 264.695 39.6167 264.695 37.89C264.695 36.1633 264.695 34.46 264.695 32.78C264.695 31.8467 264.474 31.1 264.03 30.54C263.61 29.9567 262.934 29.665 262 29.665C261.067 29.665 260.344 29.9333 259.83 30.47C259.317 31.0067 259.06 31.7767 259.06 32.78C259.06 34.46 259.06 36.1633 259.06 37.89C259.06 39.6167 259.06 41.32 259.06 43C258.127 43 257.17 43 256.19 43C255.21 43 254.242 43 253.285 43ZM286.107 43C286.107 42.8133 286.107 42.6383 286.107 42.475C286.107 42.2883 286.107 42.1133 286.107 41.95C285.524 42.44 284.859 42.8133 284.112 43.07C283.389 43.35 282.607 43.49 281.767 43.49C280.577 43.49 279.457 43.2567 278.407 42.79C277.357 42.3233 276.424 41.67 275.607 40.83C274.814 39.9667 274.184 38.9517 273.717 37.785C273.274 36.6183 273.052 35.335 273.052 33.935C273.052 32.5117 273.274 31.2167 273.717 30.05C274.184 28.8833 274.814 27.88 275.607 27.04C276.424 26.2 277.357 25.5583 278.407 25.115C279.457 24.6483 280.566 24.415 281.732 24.415C282.572 24.415 283.366 24.555 284.112 24.835C284.859 25.0917 285.524 25.4533 286.107 25.92C286.107 24.52 286.107 23.1083 286.107 21.685C286.107 20.2617 286.107 18.85 286.107 17.45C287.064 17.45 288.032 17.45 289.012 17.45C289.992 17.45 290.949 17.45 291.882 17.45C291.882 21.6733 291.882 25.9317 291.882 30.225C291.882 34.5183 291.882 38.7767 291.882 43C290.949 43 289.992 43 289.012 43C288.032 43 287.064 43 286.107 43ZM282.537 38.38C283.657 38.38 284.556 37.9717 285.232 37.155C285.909 36.3383 286.247 35.265 286.247 33.935C286.247 32.605 285.909 31.5433 285.232 30.75C284.556 29.9333 283.657 29.525 282.537 29.525C281.394 29.525 280.484 29.9217 279.807 30.715C279.154 31.5083 278.827 32.5817 278.827 33.935C278.827 35.2883 279.154 36.3733 279.807 37.19C280.484 37.9833 281.394 38.38 282.537 38.38ZM311.482 42.16C309.872 42.8367 308.274 43.2567 306.687 43.42C305.101 43.5833 303.596 43.49 302.172 43.14C300.772 42.8133 299.524 42.2417 298.427 41.425C297.331 40.6083 296.467 39.57 295.837 38.31C295.231 37.05 294.927 35.5917 294.927 33.935C294.927 32.5583 295.149 31.2983 295.592 30.155C296.059 28.9883 296.712 27.9733 297.552 27.11C298.392 26.2233 299.384 25.5467 300.527 25.08C301.671 24.59 302.919 24.345 304.272 24.345C305.486 24.345 306.582 24.5433 307.562 24.94C308.542 25.3367 309.394 25.8967 310.117 26.62C310.841 27.32 311.424 28.16 311.867 29.14C312.311 30.12 312.591 31.1933 312.707 32.36C312.824 33.5267 312.754 34.7633 312.497 36.07C310.584 36.07 308.659 36.07 306.722 36.07C304.786 36.07 302.861 36.07 300.947 36.07C301.391 36.9567 302.126 37.5867 303.152 37.96C304.202 38.3333 305.439 38.45 306.862 38.31C308.309 38.17 309.849 37.7967 311.482 37.19C311.482 38.0067 311.482 38.835 311.482 39.675C311.482 40.515 311.482 41.3433 311.482 42.16ZM304.132 29.525C303.456 29.525 302.826 29.7117 302.242 30.085C301.682 30.4583 301.251 31.03 300.947 31.8C301.997 31.8 303.047 31.8 304.097 31.8C305.171 31.8 306.232 31.8 307.282 31.8C307.002 31.0067 306.582 30.435 306.022 30.085C305.486 29.7117 304.856 29.525 304.132 29.525ZM315.766 43C315.766 40.0133 315.766 37.0033 315.766 33.97C315.766 30.9133 315.766 27.8917 315.766 24.905C316.722 24.905 317.691 24.905 318.671 24.905C319.651 24.905 320.607 24.905 321.541 24.905C321.541 25.0683 321.541 25.2317 321.541 25.395C321.541 25.5583 321.541 25.7217 321.541 25.885C322.264 25.3717 323.081 24.9867 323.991 24.73C324.901 24.4733 325.892 24.4033 326.966 24.52C326.966 25.4533 326.966 26.3983 326.966 27.355C326.966 28.3117 326.966 29.2567 326.966 30.19C325.122 29.9333 323.757 30.0967 322.871 30.68C321.984 31.24 321.541 32.1617 321.541 33.445C321.541 35.0083 321.541 36.595 321.541 38.205C321.541 39.815 321.541 41.4133 321.541 43C320.607 43 319.651 43 318.671 43C317.691 43 316.722 43 315.766 43ZM329.749 43C329.749 38.7767 329.749 34.5183 329.749 30.225C329.749 25.9317 329.749 21.6733 329.749 17.45C330.706 17.45 331.674 17.45 332.654 17.45C333.634 17.45 334.591 17.45 335.524 17.45C335.524 18.8267 335.524 20.2267 335.524 21.65C335.524 23.05 335.524 24.4383 335.524 25.815C336.154 25.3717 336.854 25.0333 337.624 24.8C338.418 24.5433 339.269 24.415 340.179 24.415C341.509 24.415 342.676 24.7183 343.679 25.325C344.706 25.9317 345.499 26.8067 346.059 27.95C346.643 29.07 346.934 30.4233 346.934 32.01C346.934 33.83 346.934 35.6617 346.934 37.505C346.934 39.3483 346.934 41.18 346.934 43C346.001 43 345.044 43 344.064 43C343.084 43 342.116 43 341.159 43C341.159 41.32 341.159 39.6167 341.159 37.89C341.159 36.1633 341.159 34.46 341.159 32.78C341.159 31.8467 340.938 31.1 340.494 30.54C340.074 29.9567 339.398 29.665 338.464 29.665C337.531 29.665 336.808 29.9333 336.294 30.47C335.781 31.0067 335.524 31.7767 335.524 32.78C335.524 34.46 335.524 36.1633 335.524 37.89C335.524 39.6167 335.524 41.32 335.524 43C334.591 43 333.634 43 332.654 43C331.674 43 330.706 43 329.749 43ZM359.102 43.56C357.748 43.56 356.488 43.3267 355.322 42.86C354.155 42.37 353.14 41.6933 352.277 40.83C351.413 39.9433 350.737 38.9167 350.247 37.75C349.78 36.5833 349.547 35.3117 349.547 33.935C349.547 32.5583 349.78 31.2867 350.247 30.12C350.737 28.9533 351.413 27.9383 352.277 27.075C353.14 26.2117 354.155 25.5467 355.322 25.08C356.488 24.59 357.748 24.345 359.102 24.345C360.478 24.345 361.738 24.59 362.882 25.08C364.048 25.5467 365.063 26.2117 365.927 27.075C366.79 27.9383 367.455 28.9533 367.922 30.12C368.412 31.2867 368.657 32.5583 368.657 33.935C368.657 35.3117 368.412 36.5833 367.922 37.75C367.455 38.9167 366.79 39.9433 365.927 40.83C365.063 41.6933 364.048 42.37 362.882 42.86C361.738 43.3267 360.478 43.56 359.102 43.56ZM359.102 38.345C360.245 38.345 361.155 37.9367 361.832 37.12C362.532 36.28 362.882 35.2183 362.882 33.935C362.882 32.6283 362.532 31.5783 361.832 30.785C361.155 29.9683 360.245 29.56 359.102 29.56C357.958 29.56 357.037 29.9683 356.337 30.785C355.66 31.5783 355.322 32.6283 355.322 33.935C355.322 35.2183 355.66 36.28 356.337 37.12C357.037 37.9367 357.958 38.345 359.102 38.345ZM388.418 24.905C388.418 27.8917 388.418 30.9133 388.418 33.97C388.418 37.0033 388.418 40.0133 388.418 43C387.485 43 386.528 43 385.548 43C384.568 43 383.6 43 382.643 43C382.643 42.8367 382.643 42.685 382.643 42.545C382.643 42.405 382.643 42.2533 382.643 42.09C382.013 42.5333 381.301 42.8717 380.508 43.105C379.738 43.3617 378.898 43.49 377.988 43.49C376.658 43.49 375.48 43.1867 374.453 42.58C373.45 41.9733 372.656 41.0983 372.073 39.955C371.513 38.8117 371.233 37.4583 371.233 35.895C371.233 34.075 371.233 32.2433 371.233 30.4C371.233 28.5567 371.233 26.725 371.233 24.905C372.19 24.905 373.158 24.905 374.138 24.905C375.118 24.905 376.075 24.905 377.008 24.905C377.008 26.585 377.008 28.2883 377.008 30.015C377.008 31.7417 377.008 33.445 377.008 35.125C377.008 36.0583 377.218 36.8167 377.638 37.4C378.081 37.96 378.77 38.24 379.703 38.24C380.636 38.24 381.36 37.9717 381.873 37.435C382.386 36.8983 382.643 36.1283 382.643 35.125C382.643 33.445 382.643 31.7417 382.643 30.015C382.643 28.2883 382.643 26.585 382.643 24.905C383.6 24.905 384.568 24.905 385.548 24.905C386.528 24.905 387.485 24.905 388.418 24.905ZM404.335 43C404.335 42.8133 404.335 42.6383 404.335 42.475C404.335 42.2883 404.335 42.1133 404.335 41.95C403.752 42.44 403.087 42.8133 402.34 43.07C401.617 43.35 400.835 43.49 399.995 43.49C398.805 43.49 397.685 43.2567 396.635 42.79C395.585 42.3233 394.652 41.67 393.835 40.83C393.042 39.9667 392.412 38.9517 391.945 37.785C391.502 36.6183 391.28 35.335 391.28 33.935C391.28 32.5117 391.502 31.2167 391.945 30.05C392.412 28.8833 393.042 27.88 393.835 27.04C394.652 26.2 395.585 25.5583 396.635 25.115C397.685 24.6483 398.793 24.415 399.96 24.415C400.8 24.415 401.593 24.555 402.34 24.835C403.087 25.0917 403.752 25.4533 404.335 25.92C404.335 24.52 404.335 23.1083 404.335 21.685C404.335 20.2617 404.335 18.85 404.335 17.45C405.292 17.45 406.26 17.45 407.24 17.45C408.22 17.45 409.177 17.45 410.11 17.45C410.11 21.6733 410.11 25.9317 410.11 30.225C410.11 34.5183 410.11 38.7767 410.11 43C409.177 43 408.22 43 407.24 43C406.26 43 405.292 43 404.335 43ZM400.765 38.38C401.885 38.38 402.783 37.9717 403.46 37.155C404.137 36.3383 404.475 35.265 404.475 33.935C404.475 32.605 404.137 31.5433 403.46 30.75C402.783 29.9333 401.885 29.525 400.765 29.525C399.622 29.525 398.712 29.9217 398.035 30.715C397.382 31.5083 397.055 32.5817 397.055 33.935C397.055 35.2883 397.382 36.3733 398.035 37.19C398.712 37.9833 399.622 38.38 400.765 38.38Z" fill="white"/>
</g>
<defs>
<filter id="filter0_d_1_66" x="79.085" y="17.45" width="335.025" height="34.215" filterUnits="userSpaceOnUse" color-interpolation-filters="sRGB">
<feFlood flood-opacity="0" result="BackgroundImageFix"/>
<feColorMatrix in="SourceAlpha" type="matrix" values="0 0 0 0 0 0 0 0 0 0 0 0 0 0 0 0 0 0 127 0" result="hardAlpha"/>
<feOffset dy="4"/>
<feGaussianBlur stdDeviation="2"/>
<feComposite in2="hardAlpha" operator="out"/>
<feColorMatrix type="matrix" values="0 0 0 0 0 0 0 0 0 0 0 0 0 0 0 0 0 0 0.25 0"/>
<feBlend mode="normal" in2="BackgroundImageFix" result="effect1_dropShadow_1_66"/>
<feBlend mode="normal" in="SourceGraphic" in2="effect1_dropShadow_1_66" result="shape"/>
</filter>
<clipPath id="clip0_1_66">
<rect width="60" height="60" fill="white"/>
</clipPath>
</defs>
</svg>
